<svg xmlns="http://www.w3.org/2000/svg" width="35" height="35" viewBox="0 0 35 35"><defs><style>.a{fill:#ff958a;}.b{fill:#fff;}</style></defs><g transform="translate(0 0.398)"><circle class="a" cx="17.5" cy="17.5" r="17.5" transform="translate(0 -0.398)"/></g><g transform="translate(6.623 11.103)"><path class="b" d="M32.556,55.171,24.581,47.2a.261.261,0,0,1,0-.378l2.3-2.3a.261.261,0,0,1,.378,0l5.488,5.488L43.072,39.681a.261.261,0,0,1,.378,0l2.3,2.3a.261.261,0,0,1,0,.378L32.934,55.171A.261.261,0,0,1,32.556,55.171Z" transform="translate(-24.5 -39.6)"/></g></svg>