<svg xmlns="http://www.w3.org/2000/svg" width="812" height="725" viewBox="0 0 812 725">
  <g id="Group_121" data-name="Group 121" transform="translate(2251 -2964)">
    <g id="Group_120" data-name="Group 120">
      <g id="Group_116" data-name="Group 116" transform="translate(-2189 2964)">
        <g id="Ellipse_20" data-name="Ellipse 20" fill="#5cb7f5" stroke="#232323" stroke-width="17">
          <circle cx="313.664" cy="313.664" r="313.664" stroke="none"/>
          <circle cx="313.664" cy="313.664" r="305.164" fill="none"/>
        </g>
        <path id="Path_236" data-name="Path 236" d="M179.913,52.95V158.312H6V53.532l.217-.349C29.261,75.07,59.587,88.459,92.957,88.459,126.435,88.459,156.87,75.07,179.913,52.95Z" transform="translate(124.435 555.046)" fill="#969faa"/>
        <path id="Path_237" data-name="Path 237" d="M118.152,26l5.435,46.452-.652.116H48.152l-.652-.116L52.935,26Z" transform="translate(534.022 268.239)" fill="#ff958a"/>
        <path id="Path_238" data-name="Path 238" d="M138.391,29.99l16.3,139.823H46L62.3,29.99l.652.116h74.783Z" transform="translate(519.218 310.702)" fill="#ff958a"/>
        <path id="Path_239" data-name="Path 239" d="M73.217,8V54.569H8V8Z" transform="translate(144.174 76.68)" fill="#ccd1d9"/>
        <path id="Path_240" data-name="Path 240" d="M72.348,2l10.87,116.422H18L28.87,2Z" transform="translate(242.87 12.827)" fill="#ccd1d9"/>
        <path id="Path_241" data-name="Path 241" d="M12,246.823V12H164.174V128.422H98.957V174.99H55.478v71.832a120.382,120.382,0,0,0-43.478,0Z" transform="translate(183.652 119.249)" fill="#ff958a"/>
        <path id="Path_242" data-name="Path 242" d="M71.217,12V246.823a125.612,125.612,0,0,0-65,33.3L6,279.77V12Z" transform="translate(124.435 119.249)" fill="#ff958a"/>
        <path id="Path_243" data-name="Path 243" d="M150.435,22V68.569H20V22H150.435Z" transform="translate(262.609 225.671)" fill="#fcd770"/>
        <path id="Path_244" data-name="Path 244" d="M233.391,26V212.275H122.848A143.878,143.878,0,0,0,107.2,165.59C88.174,130.314,55.022,104.817,16,97.832V26H233.391Z" transform="translate(223.131 268.239)" fill="#f9d48a"/>
        <path id="Path_245" data-name="Path 245" d="M397.243,42V88.569H25.83a149.339,149.339,0,0,0,1.848-23.284A149.339,149.339,0,0,0,25.83,42H397.243Z" transform="translate(320.148 438.514)" fill="#ccd1d9"/>
        <path id="Path_246" data-name="Path 246" d="M63.63,46A143.878,143.878,0,0,1,47.978,92.685,142.071,142.071,0,0,1,22,126.913V232.275H435.044V46Z" transform="translate(282.348 481.083)" fill="#e6e9ed"/>
        <ellipse id="Ellipse_21" data-name="Ellipse 21" cx="131.578" cy="139.71" rx="131.578" ry="139.71" transform="translate(86.339 363.828)" fill="#69d6f4"/>
        <path id="Path_247" data-name="Path 247" d="M50,52h65.217V168.422H50Z" transform="translate(558.696 544.936)" fill="#aab2bd"/>
        <path id="Path_248" data-name="Path 248" d="M38,52h65.217V168.422H38Z" transform="translate(440.261 544.936)" fill="#aab2bd"/>
        <path id="Path_249" data-name="Path 249" d="M26,52H91.217V168.422H26Z" transform="translate(321.827 544.936)" fill="#aab2bd"/>
        <path id="Path_250" data-name="Path 250" d="M103.217,101.137A42.337,42.337,0,0,1,72.457,87.516,48.6,48.6,0,0,1,59.739,54.569C59.739,28.839,79.2,8,103.217,8h81.522c20.978,0,38.044,18.278,38.044,40.748v5.821h32.609A42.337,42.337,0,0,1,286.152,68.19a48.6,48.6,0,0,1,12.717,32.947c0,25.729-19.457,46.569-43.478,46.569H222.783c-11.957,0-21.739,10.478-21.739,23.284v11.642H157.565V170.99c0-12.806-9.783-23.284-21.739-23.284H59.739a20.584,20.584,0,0,1-15.326-6.869A23.589,23.589,0,0,1,38,124.422c0-12.806,9.783-23.284,21.739-23.284Z" transform="translate(440.261 99.68)" fill="#f5f7fa"/>
        <path id="Path_251" data-name="Path 251" d="M586.685,280.412H502.272L480.533,466.687H392.3V280.412H348.826V233.843H283.609V117.422H260.837L249.968,1H186.8l-10.87,116.422H153.174V70.853H66.217v46.569H44.478V392.654C17.739,420.211,1,458.829,1,501.614s16.739,81.4,43.478,108.959V722.815h608.7V466.687h-44.75ZM567.49,303.7l2.717,23.284H518.75l2.717-23.284Zm-51.457,46.569h56.891l13.587,116.422H502.435ZM370.565,466.687h-90.9c-12.293-55.405-53.011-99.028-104.75-112.2V303.7H370.565ZM182.674,622.005c6.011-10.7,11.12-23.82,15.12-38.9h36.663A120.351,120.351,0,0,1,182.674,622.005Zm-132.533-38.9H86.8c4,15.077,9.1,28.2,15.12,38.9A120.479,120.479,0,0,1,50.141,583.109Zm51.794-201.887c-6.022,10.7-11.12,23.82-15.12,38.9H50.141A120.446,120.446,0,0,1,101.935,381.222ZM109.7,210.559H66.217V187.275H109.7Zm0,23.284v23.284H66.217V233.843Zm0,46.569V303.7H66.217V280.412Zm97.587,209.559a341.233,341.233,0,0,0-4.446-46.569h45.826a133.971,133.971,0,0,1,12.652,46.569Zm-108.228,0a309.767,309.767,0,0,1,5-46.569h76.5a308.362,308.362,0,0,1,5,46.569Zm86.5,23.284a309.77,309.77,0,0,1-5,46.569h-76.5a308.358,308.358,0,0,1-5-46.569Zm12.239-93.137c-4-15.077-9.1-28.2-15.12-38.9a120.259,120.259,0,0,1,51.783,38.9Zm-22.783,0H109.587c8.576-28.791,21.033-46.569,32.707-46.569S166.435,391.327,175.011,420.118ZM81.772,443.4a341.237,341.237,0,0,0-4.446,46.569H23.293A133.734,133.734,0,0,1,35.946,443.4Zm-4.446,69.853a341.238,341.238,0,0,0,4.446,46.569H35.935a133.97,133.97,0,0,1-12.652-46.569ZM109.6,583.109h65.424c-8.576,28.791-21.033,46.569-32.707,46.569S118.174,611.9,109.6,583.109Zm139.076-23.284H202.848a341.239,341.239,0,0,0,4.446-46.569h54.033a133.97,133.97,0,0,1-12.652,46.569Zm78.413-279.412h-108.7V257.128h108.7ZM261.87,233.843H196.652v46.569H153.174v70.447c-3.6-.3-7.2-.594-10.87-.594s-7.272.291-10.87.594V140.706H261.87ZM206.489,24.284h23.794l8.7,93.137h-41.2ZM87.957,94.137h43.478v23.284H87.957ZM109.7,140.706V163.99H66.217V140.706ZM66.217,326.981H109.7v27.51a135.419,135.419,0,0,0-43.478,19.792Zm0,301.963a132.529,132.529,0,0,0,152.174,0V699.53H66.217Zm260.87,70.586H283.609V606.393h43.478Zm130.435,0H414.044V606.393h43.478Zm130.435,0H544.479V606.393h43.478Zm21.739,0V583.109H522.74V699.53H479.261V583.109H392.3V699.53H348.826V583.109H261.87V699.53H240.131V610.573a154.125,154.125,0,0,0,39.533-74.032H631.435V699.53Zm21.739-186.275H283.055c.283-3.854.554-7.707.554-11.642s-.272-7.789-.554-11.642H631.435Z" transform="translate(75.087 2.185)"/>
        <path id="Path_252" data-name="Path 252" d="M146.826,53.569H124.794C122.076,27.409,101.315,7,76.174,7H49V30.284H76.174c14.989,0,27.174,13.063,27.174,29.105V76.853h43.478c17.978,0,32.609,15.67,32.609,34.927s-14.63,34.926-32.609,34.926H114.217c-17.978,0-32.609,15.67-32.609,34.927v11.642h21.739V181.633c0-6.415,4.87-11.642,10.87-11.642h32.609c29.967,0,54.348-26.113,54.348-58.211S176.794,53.569,146.826,53.569Z" transform="translate(548.826 91.038)"/>
        <path id="Path_253" data-name="Path 253" d="M69.609,169.99H145.7c6,0,10.87,5.227,10.87,11.642v11.642H178.3V181.633c0-19.256-14.63-34.927-32.609-34.927H69.609c-6,0-10.87-5.227-10.87-11.642s4.87-11.642,10.87-11.642h65.217V100.137H113.087c-17.978,0-32.609-15.67-32.609-34.927s14.63-34.927,32.609-34.927H145.7V7H113.087C83.12,7,58.739,33.113,58.739,65.211a60.282,60.282,0,0,0,11.152,34.927h-.283C51.63,100.137,37,115.808,37,135.064S51.63,169.99,69.609,169.99Z" transform="translate(430.392 89.038)"/>
        <path id="Path_254" data-name="Path 254" d="M31,29H52.739V52.284H31Z" transform="translate(371.175 300.166)"/>
        <path id="Path_255" data-name="Path 255" d="M19,29H40.739V52.284H19Z" transform="translate(252.739 300.166)"/>
        <path id="Path_256" data-name="Path 256" d="M23,29H44.739V52.284H23Z" transform="translate(292.218 300.166)"/>
        <path id="Path_257" data-name="Path 257" d="M27,29H48.739V52.284H27Z" transform="translate(331.696 300.166)"/>
        <path id="Path_258" data-name="Path 258" d="M31,33H52.739V56.284H31Z" transform="translate(371.175 342.734)"/>
        <path id="Path_259" data-name="Path 259" d="M27,33H48.739V56.284H27Z" transform="translate(331.696 342.734)"/>
        <path id="Path_260" data-name="Path 260" d="M27,37H48.739V60.284H27Z" transform="translate(331.696 385.303)"/>
        <path id="Path_261" data-name="Path 261" d="M31,37H52.739V60.284H31Z" transform="translate(371.175 385.303)"/>
      </g>
      <rect id="Rectangle_1110" data-name="Rectangle 1110" width="812" height="725" transform="translate(-2251 2964)" fill="none"/>
    </g>
  </g>
</svg>
