<svg xmlns="http://www.w3.org/2000/svg" width="188.282" height="170" viewBox="0 0 188.282 170"><defs><style>.a{fill:#5cb7f5;}.b{fill:#969faa;}.c{fill:#ff958a;}.d{fill:#ccd1d9;}.e{fill:#fcd770;}.f{fill:#f9d48a;}.g{fill:#e6e9ed;}.h{fill:#69d6f4;}.i{fill:#aab2bd;}.j{fill:#f5f7fa;}</style></defs><g transform="translate(-1280 -3077)"><ellipse class="a" cx="84.212" cy="84.408" rx="84.212" ry="84.408" transform="translate(1280 3077)"/><path d="M143.756,24.726A83.865,83.865,0,0,0,84.212,0h0A84.444,84.444,0,0,0,24.668,144.09,84.306,84.306,0,0,0,143.756,24.726ZM140.15,140.475A79.2,79.2,0,0,1,28.275,28.341,79.2,79.2,0,0,1,140.15,140.475Z" transform="translate(1280 3077)"/><path class="b" d="M140.593,418v25.223H96V418.139l.07-.07a33.5,33.5,0,0,0,44.524-.07Z" transform="translate(1216.533 2800.99)"/><path class="c" d="M446.116,202.4l1.394,11.148H428l1.394-11.148Z" transform="translate(997.083 2943.536)"/><path class="c" d="M439.69,234.4l4.181,33.445H416l4.181-33.445h19.51Z" transform="translate(1004.902 2922.144)"/><rect class="d" width="16.722" height="11.148" transform="translate(1318.125 3097.346)"/><path class="d" d="M205.935,10.4l2.787,27.871H192L194.787,10.4Z" transform="translate(1153.356 3070.223)"/><path class="c" d="M144,146.629V90.4h39.019v27.871H166.3v11.148H155.148v17.21A33.268,33.268,0,0,0,144,146.629Z" transform="translate(1184.85 3017.119)"/><path class="c" d="M112.722,90.4v56.229a32.935,32.935,0,0,0-16.653,7.978l-.07-.07v-64.1h16.722Z" transform="translate(1216.678 3017.048)"/><rect class="e" width="33.445" height="11.148" transform="translate(1350.628 3135.037)"/><path class="f" d="M231.742,202.335v44.593H203.383A33.356,33.356,0,0,0,176,219.51V202.3h55.742Z" transform="translate(1163.508 2943.192)"/><path class="d" d="M349.848,330.4v11.148H254.6a32.1,32.1,0,0,0,0-11.148Z" transform="translate(1110.073 2859.131)"/><path class="g" d="M234.661,362.4a33.606,33.606,0,0,1-4.006,11.183A34.3,34.3,0,0,1,224,381.77v25.223H329.909V362.4Z" transform="translate(1130.012 2837.22)"/><ellipse class="h" cx="33.724" cy="33.445" rx="33.724" ry="33.445" transform="translate(1302.157 3160.566)"/><rect class="i" width="16.722" height="27.871" transform="translate(1432.051 3216.342)"/><rect class="i" width="16.722" height="27.871" transform="translate(1399.82 3216.342)"/><rect class="i" width="16.722" height="27.871" transform="translate(1367.142 3216.342)"/><path class="j" d="M368.722,80.7a11.148,11.148,0,0,1,0-22.3h20.9a9.739,9.739,0,0,1,9.755,9.755v1.394h8.361a11.148,11.148,0,0,1,0,22.3H399.38a5.591,5.591,0,0,0-5.574,5.574v2.787H382.658V97.419a5.591,5.591,0,0,0-5.574-5.574h-19.51a5.574,5.574,0,0,1,0-11.148h11.148Z" transform="translate(1046.605 3042.946)"/><path d="M202.564,67.883H181.451l-5.44,43.655h-22.1V67.883h-10.88V56.969h-16.32V29.684H121L118.251,3.207l-15.612.538-2.89,25.94H94.071V18.771H72.311V29.684h-5.44V94.178a35.421,35.421,0,0,0-1.122,49.965l1.122,1.125v26.3H219.19V111.538H208Zm-4.828,5.457.68,5.457H185.531l.68-5.457ZM184.885,84.253H199.13l3.4,27.284H181.485Zm-36.414,27.284H125.725a35.419,35.419,0,0,0-26.214-26.3V73.34h48.96Zm-47.022,36.425a37.334,37.334,0,0,0,3.774-9.106h9.18A30.29,30.29,0,0,1,101.449,147.963Zm-33.15-9.14h9.18a38.13,38.13,0,0,0,3.774,9.106A29.721,29.721,0,0,1,68.3,138.822Zm12.954-47.3a37.334,37.334,0,0,0-3.774,9.106H68.3A30,30,0,0,1,81.253,91.518Zm1.938-40.006H72.311V46.055h10.88Zm0,5.457v5.457H72.311V56.969Zm0,10.914V73.34H72.311V67.883ZM107.6,116.995a73.773,73.773,0,0,0-1.122-10.914h11.458a29.9,29.9,0,0,1,3.162,10.914Zm-27.064,0A69.234,69.234,0,0,1,81.8,106.081h19.142a69.233,69.233,0,0,1,1.258,10.914Zm21.624,5.457a69.233,69.233,0,0,1-1.258,10.914H81.763a69.234,69.234,0,0,1-1.258-10.914Zm3.06-21.828a38.131,38.131,0,0,0-3.774-9.106,30,30,0,0,1,12.954,9.106Zm-5.678,0H83.157c2.142-6.753,5.27-10.914,8.194-10.914S97.4,93.905,99.545,100.624Zm-23.358,5.457a73.772,73.772,0,0,0-1.122,10.914h-13.5a29.9,29.9,0,0,1,3.162-10.914ZM75.1,122.452a73.771,73.771,0,0,0,1.122,10.914H64.729a29.9,29.9,0,0,1-3.162-10.914Zm8.058,16.371H99.545c-2.142,6.753-5.27,10.914-8.194,10.914S85.3,145.575,83.157,138.822Zm34.816-5.457H106.515a73.774,73.774,0,0,0,1.122-10.914h13.532A30.418,30.418,0,0,1,117.973,133.366Zm19.618-65.483h-27.2V62.426h27.2Zm-16.32-10.914h-16.32V67.883H94.071V84.39c-.884-.068-1.8-.136-2.72-.136s-1.836.068-2.72.136V35.141h32.64ZM107.4,7.857h5.95l2.176,21.828h-10.3ZM77.751,24.228h10.88v5.457H77.751Zm5.44,10.914V40.6H72.311V35.141ZM72.311,78.8h10.88v6.446a34.978,34.978,0,0,0-10.88,4.638Zm0,70.769a35.024,35.024,0,0,0,38.08,0v16.541H72.311Zm65.28,16.541h-10.88V144.279h10.88Zm32.64,0h-10.88V144.279h10.88Zm32.64,0H191.99V144.279h10.88Zm5.44,0V138.822h-21.76v27.285h-10.88V138.822h-21.76v27.285h-10.88V138.822h-21.76v27.285h-5.44V145.268a35.373,35.373,0,0,0,9.894-17.36H213.75v38.2Zm5.44-43.655H126.575c.068-.887.136-1.808.136-2.728s-.068-1.842-.136-2.728H213.75Z" transform="translate(1243.518 3075.436)"/><path d="M460.353,61.548h-.913A12.58,12.58,0,0,0,446.968,50.4h-11.7v5.574h11.7a6.988,6.988,0,0,1,6.968,6.968v4.181h11.148a8.361,8.361,0,1,1,0,16.722h-8.361a8.386,8.386,0,0,0-8.361,8.361v2.787h5.574V92.206a2.8,2.8,0,0,1,2.787-2.787h8.361a13.932,13.932,0,0,0,13.935-13.935C479.019,67.784,468.052,61.548,460.353,61.548Z" transform="translate(989.263 3049.159)"/><path d="M352.361,89.419h19.51a2.8,2.8,0,0,1,2.787,2.787v2.787h5.574V92.206a8.386,8.386,0,0,0-8.361-8.361h-19.51a2.787,2.787,0,0,1,0-5.574h16.722V72.7H363.51a8.361,8.361,0,1,1,0-16.722h8.361V50.4H363.51a13.932,13.932,0,0,0-13.935,13.935,13.711,13.711,0,0,0,2.857,8.361h-.07a8.361,8.361,0,1,0,0,16.722Z" transform="translate(1052.753 3049.159)"/><rect width="5.574" height="5.574" transform="translate(1380.899 3154.168)"/><rect width="5.574" height="5.574" transform="translate(1348.175 3154.168)"/><rect width="5.574" height="5.574" transform="translate(1359.083 3154.168)"/><rect width="5.574" height="5.574" transform="translate(1369.991 3154.168)"/><rect width="5.574" height="5.574" transform="translate(1380.899 3165.075)"/><rect width="5.574" height="5.574" transform="translate(1369.991 3165.075)"/><rect width="5.574" height="5.574" transform="translate(1369.991 3175.983)"/><rect width="5.574" height="5.574" transform="translate(1380.899 3175.983)"/></g></svg>