<svg xmlns="http://www.w3.org/2000/svg" width="26" height="37.239" viewBox="0 0 26 37.239">
  <g id="location" transform="translate(-0.001 0.5)">
    <path id="Path_272" data-name="Path 272" d="M107.9,111.11a5.331,5.331,0,1,1,3.771-1.56A5.316,5.316,0,0,1,107.9,111.11Zm0-8.554a3.223,3.223,0,1,0,2.28.943A3.214,3.214,0,0,0,107.9,102.556Zm0,0" transform="translate(-94.897 -93.39)" fill="#226edb" stroke="#226edb" stroke-width="1"/>
    <path id="Path_273" data-name="Path 273" d="M13.013,35.961,12.2,35C11.72,34.442.5,21.162.5,12.5a12.5,12.5,0,0,1,25,0c0,8.237-11.209,21.913-11.687,22.491ZM13,2.109A10.4,10.4,0,0,0,2.61,12.5c0,3.22,1.92,7.88,5.553,13.476,1.885,2.9,3.783,5.364,4.826,6.665,1.044-1.337,2.961-3.878,4.858-6.837,3.627-5.658,5.544-10.258,5.544-13.3A10.4,10.4,0,0,0,13,2.109Zm0,0" fill="#226edb" stroke="#226edb" stroke-width="1"/>
  </g>
</svg>
