<svg xmlns="http://www.w3.org/2000/svg" width="135" height="135" viewBox="0 0 135 135"><defs><style>.a{fill:#5cb7f5;}.b{fill:#f9d48a;}.c{fill:#f5f7fa;}.d{fill:#ff958a;}.e{fill:#232323;}</style></defs><g transform="translate(3741 1428)"><path class="a" d="M138.645,73.322A65.322,65.322,0,1,1,73.322,8,65.323,65.323,0,0,1,138.645,73.322Zm0,0" transform="translate(-3746.823 -1433.823)"/><path class="b" d="M176.71,360H168v26.129h17.419V360Zm0,0" transform="translate(-3863.274 -1690.016)"/><path class="b" d="M79.6,360h-8.71v13.065l-.414.392a64.889,64.889,0,0,0,9.123,8.317,61.313,61.313,0,0,0,6.641,4.355h2.069V360Zm0,0" transform="translate(-3792.297 -1690.016)"/><path class="c" d="M31.765,333.134v4.355l-.414.392A64.677,64.677,0,0,1,16.719,311.36h67.3l.566-.239a4.229,4.229,0,0,0,.785,1.066,4.564,4.564,0,0,0,3,1.329v37.037H75.313V324.425H57.894v26.129h-8.71V324.425H31.765Zm0,0" transform="translate(-3753.168 -1654.441)"/><path class="c" d="M328.73,312.827a4.615,4.615,0,0,0,3.266,1.35v37.016H321.371V325.065H290.887v26.129H280V314.156a1.087,1.087,0,0,0,.262.021,4.615,4.615,0,0,0,3.266-1.35l.827-.827H327.9Zm0,0" transform="translate(-3944.791 -1655.081)"/><path class="b" d="M335.242,360H320v26.129h30.484V360Zm0,0" transform="translate(-3973.903 -1690.016)"/><path class="b" d="M317.774,232l21.774,21.774H296Zm0,0" transform="translate(-3956.436 -1596.855)"/><path class="c" d="M296.661,192.414a4.427,4.427,0,0,1,1.35.937l25.606,25.606.109.11a4.576,4.576,0,0,1,1.241,3.157,4.619,4.619,0,0,1-7.883,3.266l-22.6-22.6-22.6,22.6a4.615,4.615,0,0,1-3.266,1.35,1.087,1.087,0,0,1-.262-.021,4.564,4.564,0,0,1-3-1.329,4.23,4.23,0,0,1-.785-1.066,4.472,4.472,0,0,1-.566-2.2,4.615,4.615,0,0,1,1.35-3.266l25.606-25.606a4.615,4.615,0,0,1,3.266-1.35h.523A4.723,4.723,0,0,1,296.661,192.414Zm0,0" transform="translate(-3933.145 -1567.742)"/><path class="d" d="M98.065,208H104.6L82,230.6a4.615,4.615,0,0,0-1.35,3.266,4.472,4.472,0,0,0,.566,2.2l-.566.239h-67.3a51.4,51.4,0,0,1-1.263-5.465L34.92,208Zm0,0" transform="translate(-3749.791 -1579.387)"/><path class="c" d="M186.032,120v20.01a4.723,4.723,0,0,0-1.916-.414h-.523a4.615,4.615,0,0,0-3.266,1.35l-3,3H170.79V130.887h-8.71v13.064h-8.71V130.887h-8.71v13.064h-8.71V130.887h-8.71v13.064H112V120Zm0,0" transform="translate(-3822.516 -1515.339)"/><g transform="translate(-3695.274 -1384.452)"><path class="b" d="M296,160h8.71v13.064H296Zm0,0" transform="translate(-261.161 -160)"/><path class="b" d="M232,160h8.71v13.064H232Zm0,0" transform="translate(-214.581 -160)"/><path class="b" d="M168,160h8.71v13.064H168Zm0,0" transform="translate(-168 -160)"/></g><path class="d" d="M93.152,40h67.413l10.887,21.774H80L90.887,40Zm0,0" transform="translate(-3799.226 -1457.113)"/><path class="e" d="M368,264h4.355v4.355H368Zm0,0" transform="translate(-4008.839 -1620.145)"/><path class="e" d="M135,67.5a67.353,67.353,0,0,0-29.952-56.064L103.684,8.71h-3.071a67.3,67.3,0,0,0-66.228,0H31.315l-1.363,2.726a67.484,67.484,0,0,0,70.7,114.854h29.728V88.884A6.712,6.712,0,0,0,134.013,79,68.063,68.063,0,0,0,135,67.5Zm-4.355,0a63.306,63.306,0,0,1-.442,7.366L107.408,52.071a7.036,7.036,0,0,0-.714-.588V34.839h10.056l-7.2-14.4a62.937,62.937,0,0,1,21.1,47.06ZM65.322,121.936V95.807H43.548v26.129H39.193V95.807H17.419V105.9A62.991,62.991,0,0,1,7.484,87.1H71.518A6.8,6.8,0,0,0,74.032,88.8v33.133Zm-34.839-4.355h4.355v3.943c-1.5-.908-2.944-1.888-4.355-2.911Zm0-17.419h4.355v4.355H30.484Zm-4.355,4.355H21.774v-4.355h4.355Zm8.71,4.355v4.355H30.484v-4.355Zm26.129,4.355H56.613v-4.355h4.355Zm0-8.71H56.613v-4.355h4.355Zm-8.71,0H47.9v-4.355h4.355ZM47.9,108.871h4.355v4.355H47.9Zm0,8.71h4.355v4.355H47.9Zm8.71,0h4.355v4.355H56.613ZM71.667,77.673a6.842,6.842,0,0,0-1.99,4.806c0,.089.024.174.027.264H6.225c-.211-.847-.414-1.7-.59-2.556l21.4-21.4H90.55ZM52.258,54.436H47.9v-8.71h4.355Zm17.419,0H65.322v-8.71h4.355Zm17.419,0H82.742v-8.71H87.1Zm7.808,0H91.451V41.371H78.387V54.436H74.032V41.371H60.967V54.436H56.613V41.371H43.548V54.436H32.661v-19.6h69.677V50.081h-.264a6.756,6.756,0,0,0-4.806,1.99Zm6.088-41.371,8.71,17.419H25.3l8.71-17.419ZM67.5,4.355A63.128,63.128,0,0,1,90.456,8.71H44.543A63.128,63.128,0,0,1,67.5,4.355ZM25.449,20.44l-7.2,14.4H28.306v19.6H25.227L4.8,74.866A62.829,62.829,0,0,1,25.449,20.44Zm-3.675,90.538v-2.107h4.355v4.355H24.022Q22.868,112.132,21.774,110.978ZM67.5,130.645a62.783,62.783,0,0,1-23-4.355h46a63.253,63.253,0,0,1-23,4.355Zm47.9-8.71H104.516V100.162H115.4Zm-15.242,0H89.274V100.162h10.887Zm19.6,0V95.807H84.919v26.129H78.387V88.969a6.723,6.723,0,0,0,2.892-1.685l.187-.187h41.745l.187.187a6.733,6.733,0,0,0,2.628,1.605v33.046ZM85.82,82.742l16.518-16.518,16.518,16.518ZM128.2,84.92a2.424,2.424,0,0,1-1.727-.714L102.338,60.066,78.2,84.205a2.442,2.442,0,0,1-4.168-1.727,2.467,2.467,0,0,1,.714-1.727l25.6-25.6a2.432,2.432,0,0,1,1.727-.714h.527a2.432,2.432,0,0,1,1.727.714l25.6,25.6A2.442,2.442,0,0,1,128.2,84.92Zm0,0" transform="translate(-3741 -1428)"/></g></svg>