<svg xmlns="http://www.w3.org/2000/svg" width="135" height="135" viewBox="0 0 135 135"><defs><style>.a{fill:#5cb7f5;}.b{fill:#f5f7fa;}.c{fill:#f9d48a;}.d{fill:#ff958a;}.e{fill:#232323;}</style></defs><g transform="translate(4480 1470)"><g transform="translate(-4480 -1470)"><g transform="translate(0 0)"><path class="a" d="M138.645,73.323A65.323,65.323,0,1,1,73.323,8,65.323,65.323,0,0,1,138.645,73.323Zm0,0" transform="translate(-5.823 -5.823)"/><path class="b" d="M239.425,9.284a4.263,4.263,0,0,1,1.284,3.071v8.71H232v-8.71A4.367,4.367,0,0,1,236.355,8a3,3,0,0,1,.436.021,4.314,4.314,0,0,1,2.635,1.263Zm0,0" transform="translate(-168.855 -5.823)"/><path class="c" d="M264,56h8.71V77.774H264Zm0,0" transform="translate(-192.145 -40.758)"/><path class="c" d="M200,56h8.71V77.774H200Zm0,0" transform="translate(-145.565 -40.758)"/><path class="c" d="M204.258,156.772v5.356H191.194V144.709h-8.71v17.419h-8.71V144.709h-8.71v17.419H152V136h52.258Zm0,0" transform="translate(-110.629 -98.984)"/><path class="c" d="M196.968,245.065v17.419h-8.71V240.71h-8.71v21.774h-8.71V240.71h-8.71v21.774h-8.71V240.71h-8.71v21.774H136V232h60.968Zm0,0" transform="translate(-98.984 -168.855)"/><path class="c" d="M171.325,361.419v13.064H158.261V361.419h-8.71v13.064H136.487V361.419h-8.71v13.064h-6.424c-.892-.5-1.763-1.024-2.635-1.612l.349-.566V344h69.677v28.306l.349.566c-.872.588-1.743,1.111-2.635,1.612h-6.424V361.419Zm0,0" transform="translate(-86.406 -250.371)"/><g transform="translate(2.177 2.177)"><path class="b" d="M312,408h8.71v13.065H312Zm0,0" transform="translate(-229.258 -299.129)"/><path class="b" d="M232,408h8.71v13.065H232Zm0,0" transform="translate(-171.032 -299.129)"/><path class="b" d="M152,408h8.71v13.065H152Zm0,0" transform="translate(-112.806 -299.129)"/><path class="b" d="M348.355,208a8.708,8.708,0,0,1,5.444,1.959,8.627,8.627,0,0,1,13.848,4.594c.109,0,.2-.021.305-.021a6.532,6.532,0,0,1,0,13.064h-19.6V214.532H344v-5.356A8.689,8.689,0,0,1,348.355,208Zm0,0" transform="translate(-252.548 -153.565)"/><path class="b" d="M45.386,15.055A6.529,6.529,0,0,1,42.838,27.6H14.532a6.532,6.532,0,1,1,0-13.065c.108,0,.2.021.305.021A8.627,8.627,0,0,1,28.685,9.959a8.627,8.627,0,0,1,13.848,4.594c.11,0,.2-.021.305-.021a6.2,6.2,0,0,1,2.547.523Zm0,0" transform="translate(-8 -8)"/><path class="b" d="M70.484,193.176v9.711H66.129v8.71h-19.6a6.532,6.532,0,1,1,0-13.064c.108,0,.2.021.305.021a8.627,8.627,0,0,1,13.848-4.594,8.589,8.589,0,0,1,9.8-.784Zm0,0" transform="translate(-31.29 -141.919)"/><path class="b" d="M296,264h8.71v21.774H296Zm0,0" transform="translate(-217.613 -194.323)"/><path class="b" d="M232,264h8.71v21.774H232Zm0,0" transform="translate(-171.032 -194.323)"/><path class="b" d="M168,264h8.71v21.774H168Zm0,0" transform="translate(-124.452 -194.323)"/></g><path class="d" d="M232,56h8.71V77.774H232Zm0,0" transform="translate(-168.855 -40.758)"/><path class="b" d="M264,168h8.71v17.419H264Zm0,0" transform="translate(-192.145 -122.274)"/><path class="b" d="M200,168h8.71v17.419H200Zm0,0" transform="translate(-145.565 -122.274)"/><path class="e" d="M176,368h4.355v4.355H176Zm0,0" transform="translate(-128.097 -267.839)"/><path class="e" d="M208,368h4.355v4.355H208Zm0,0" transform="translate(-151.387 -267.839)"/><path class="e" d="M240,368h4.355v4.355H240Zm0,0" transform="translate(-174.678 -267.839)"/><path class="e" d="M272,368h4.355v4.355H272Zm0,0" transform="translate(-197.968 -267.839)"/><path class="e" d="M304,368h4.355v4.355H304Zm0,0" transform="translate(-221.258 -267.839)"/><path class="e" d="M67.5,0A66.823,66.823,0,0,0,38.312,6.63a.051.051,0,0,1-.016,0A10.857,10.857,0,0,0,28.307,0a10.622,10.622,0,0,0-5.444,1.494A10.622,10.622,0,0,0,17.42,0,10.857,10.857,0,0,0,7.43,6.626,8.71,8.71,0,0,0,8.71,23.952h7.24A67.484,67.484,0,1,0,67.5,0Zm2.177,6.532v6.532H65.323V6.532a2.177,2.177,0,1,1,4.355,0Zm26.129,52.65a6.534,6.534,0,0,1,6.252,1.084l1.369,1.106,1.369-1.106a6.43,6.43,0,0,1,4.074-1.477,6.518,6.518,0,0,1,6.3,4.924l.436,1.711,1.768-.076c.115-.005.231-.018.2-.027a4.355,4.355,0,1,1,0,8.71H100.161V60.968H95.807Zm-4.355,62.753H87.1v-8.71h4.355Zm4.355,0V108.871H82.742v13.065h-8.71V108.871H60.968v13.065h-8.71V108.871H39.194v13.065H35.555c-.237-.139-.482-.27-.717-.411V95.806h65.323v25.718c-.235.144-.479.272-.717.411Zm-26.129,0H65.323v-8.71h4.355Zm-21.774,0H43.549v-8.71H47.9Zm-8.71-60.968H34.839v8.71H17.42a4.359,4.359,0,0,1-.141-8.716l2.114.108.436-1.711a6.514,6.514,0,0,1,6.3-4.924A6.43,6.43,0,0,1,30.2,55.912l1.369,1.106,1.369-1.106a6.544,6.544,0,0,1,6.252-1.082ZM52.258,91.451H47.9V74.032h4.355Zm17.419,0H65.323V74.032h4.355Zm17.419,0H82.742V74.032H87.1Zm4.355,0V69.677H78.387V91.451H74.032V69.677H60.968V91.451H56.613V69.677H43.549V91.451H39.194V65.322H95.807V91.451ZM60.968,60.968H56.613V47.9h4.355Zm17.419,0H74.032V47.9h4.355Zm13.065,0h-8.71V43.548H69.678V60.968H65.323V43.548H52.258V60.968h-8.71V39.193h47.9ZM56.613,34.839V17.419h4.355V34.839Zm21.774,0H74.032V17.419h4.355Zm-8.71,0H65.323V17.419h4.355ZM4.355,15.242a4.342,4.342,0,0,1,4.213-4.361l2.114.108.436-1.711a6.514,6.514,0,0,1,6.3-4.924,6.43,6.43,0,0,1,4.074,1.477l1.369,1.106,1.369-1.106a6.43,6.43,0,0,1,4.074-1.477,6.518,6.518,0,0,1,6.3,4.924l.436,1.711,1.768-.075c.115-.005.231-.018.2-.027a4.355,4.355,0,1,1,0,8.71H8.71a4.359,4.359,0,0,1-4.355-4.355Zm0,52.258A62.769,62.769,0,0,1,21.8,23.952H37.016A8.674,8.674,0,0,0,43.229,9.187a62.22,62.22,0,0,1,18.04-4.512,6.463,6.463,0,0,0-.3,1.857v6.532h-8.71V34.839H39.194v15.5a10.864,10.864,0,0,0-7.621,1.232,10.622,10.622,0,0,0-5.444-1.494,10.857,10.857,0,0,0-9.99,6.626,8.71,8.71,0,0,0,1.28,17.326H34.839V91.451H30.484v27.159A63.086,63.086,0,0,1,4.355,67.5ZM44.5,126.29h46a62.9,62.9,0,0,1-46,0Zm60.014-7.679V91.451h-4.355V78.387h17.419a8.71,8.71,0,0,0,1.28-17.326,10.857,10.857,0,0,0-9.99-6.626,10.622,10.622,0,0,0-5.444,1.494A10.864,10.864,0,0,0,95.807,54.7V34.839H82.742V13.064h-8.71V6.532a6.477,6.477,0,0,0-.305-1.868,63.111,63.111,0,0,1,30.789,113.946Zm0,0" transform="translate(0 0)"/></g><path class="a" d="M138.645,73.323A65.323,65.323,0,1,1,73.323,8,65.323,65.323,0,0,1,138.645,73.323Zm0,0" transform="translate(-5.823 -5.823)"/><path class="b" d="M239.425,9.284a4.263,4.263,0,0,1,1.284,3.071v8.71H232v-8.71A4.367,4.367,0,0,1,236.355,8a3,3,0,0,1,.436.021,4.314,4.314,0,0,1,2.635,1.263Zm0,0" transform="translate(-168.855 -5.823)"/><path class="c" d="M264,56h8.71V77.774H264Zm0,0" transform="translate(-192.145 -40.758)"/><path class="c" d="M200,56h8.71V77.774H200Zm0,0" transform="translate(-145.565 -40.758)"/><path class="c" d="M204.258,156.772v5.356H191.194V144.709h-8.71v17.419h-8.71V144.709h-8.71v17.419H152V136h52.258Zm0,0" transform="translate(-110.629 -98.984)"/><path class="c" d="M196.968,245.065v17.419h-8.71V240.71h-8.71v21.774h-8.71V240.71h-8.71v21.774h-8.71V240.71h-8.71v21.774H136V232h60.968Zm0,0" transform="translate(-98.984 -168.855)"/><path class="c" d="M171.325,361.419v13.064H158.261V361.419h-8.71v13.064H136.487V361.419h-8.71v13.064h-6.424c-.892-.5-1.763-1.024-2.635-1.612l.349-.566V344h69.677v28.306l.349.566c-.872.588-1.743,1.111-2.635,1.612h-6.424V361.419Zm0,0" transform="translate(-86.406 -250.371)"/><g transform="translate(2.177 2.177)"><path class="b" d="M312,408h8.71v13.065H312Zm0,0" transform="translate(-229.258 -299.129)"/><path class="b" d="M232,408h8.71v13.065H232Zm0,0" transform="translate(-171.032 -299.129)"/><path class="b" d="M152,408h8.71v13.065H152Zm0,0" transform="translate(-112.806 -299.129)"/><path class="b" d="M348.355,208a8.708,8.708,0,0,1,5.444,1.959,8.627,8.627,0,0,1,13.848,4.594c.109,0,.2-.021.305-.021a6.532,6.532,0,0,1,0,13.064h-19.6V214.532H344v-5.356A8.689,8.689,0,0,1,348.355,208Zm0,0" transform="translate(-252.548 -153.565)"/><path class="b" d="M45.386,15.055A6.529,6.529,0,0,1,42.838,27.6H14.532a6.532,6.532,0,1,1,0-13.065c.108,0,.2.021.305.021A8.627,8.627,0,0,1,28.685,9.959a8.627,8.627,0,0,1,13.848,4.594c.11,0,.2-.021.305-.021a6.2,6.2,0,0,1,2.547.523Zm0,0" transform="translate(-8 -8)"/><path class="b" d="M70.484,193.176v9.711H66.129v8.71h-19.6a6.532,6.532,0,1,1,0-13.064c.108,0,.2.021.305.021a8.627,8.627,0,0,1,13.848-4.594,8.589,8.589,0,0,1,9.8-.784Zm0,0" transform="translate(-31.29 -141.919)"/><path class="b" d="M296,264h8.71v21.774H296Zm0,0" transform="translate(-217.613 -194.323)"/><path class="b" d="M232,264h8.71v21.774H232Zm0,0" transform="translate(-171.032 -194.323)"/><path class="b" d="M168,264h8.71v21.774H168Zm0,0" transform="translate(-124.452 -194.323)"/></g><path class="d" d="M232,56h8.71V77.774H232Zm0,0" transform="translate(-168.855 -40.758)"/><path class="b" d="M264,168h8.71v17.419H264Zm0,0" transform="translate(-192.145 -122.274)"/><path class="b" d="M200,168h8.71v17.419H200Zm0,0" transform="translate(-145.565 -122.274)"/><path class="e" d="M176,368h4.355v4.355H176Zm0,0" transform="translate(-128.097 -267.839)"/><path class="e" d="M208,368h4.355v4.355H208Zm0,0" transform="translate(-151.387 -267.839)"/><path class="e" d="M240,368h4.355v4.355H240Zm0,0" transform="translate(-174.678 -267.839)"/><path class="e" d="M272,368h4.355v4.355H272Zm0,0" transform="translate(-197.968 -267.839)"/><path class="e" d="M304,368h4.355v4.355H304Zm0,0" transform="translate(-221.258 -267.839)"/><path class="e" d="M67.5,0A66.823,66.823,0,0,0,38.312,6.63a.051.051,0,0,1-.016,0A10.857,10.857,0,0,0,28.307,0a10.622,10.622,0,0,0-5.444,1.494A10.622,10.622,0,0,0,17.42,0,10.857,10.857,0,0,0,7.43,6.626,8.71,8.71,0,0,0,8.71,23.952h7.24A67.484,67.484,0,1,0,67.5,0Zm2.177,6.532v6.532H65.323V6.532a2.177,2.177,0,1,1,4.355,0Zm26.129,52.65a6.534,6.534,0,0,1,6.252,1.084l1.369,1.106,1.369-1.106a6.43,6.43,0,0,1,4.074-1.477,6.518,6.518,0,0,1,6.3,4.924l.436,1.711,1.768-.076c.115-.005.231-.018.2-.027a4.355,4.355,0,1,1,0,8.71H100.161V60.968H95.807Zm-4.355,62.753H87.1v-8.71h4.355Zm4.355,0V108.871H82.742v13.065h-8.71V108.871H60.968v13.065h-8.71V108.871H39.194v13.065H35.555c-.237-.139-.482-.27-.717-.411V95.806h65.323v25.718c-.235.144-.479.272-.717.411Zm-26.129,0H65.323v-8.71h4.355Zm-21.774,0H43.549v-8.71H47.9Zm-8.71-60.968H34.839v8.71H17.42a4.359,4.359,0,0,1-.141-8.716l2.114.108.436-1.711a6.514,6.514,0,0,1,6.3-4.924A6.43,6.43,0,0,1,30.2,55.912l1.369,1.106,1.369-1.106a6.544,6.544,0,0,1,6.252-1.082ZM52.258,91.451H47.9V74.032h4.355Zm17.419,0H65.323V74.032h4.355Zm17.419,0H82.742V74.032H87.1Zm4.355,0V69.677H78.387V91.451H74.032V69.677H60.968V91.451H56.613V69.677H43.549V91.451H39.194V65.322H95.807V91.451ZM60.968,60.968H56.613V47.9h4.355Zm17.419,0H74.032V47.9h4.355Zm13.065,0h-8.71V43.548H69.678V60.968H65.323V43.548H52.258V60.968h-8.71V39.193h47.9ZM56.613,34.839V17.419h4.355V34.839Zm21.774,0H74.032V17.419h4.355Zm-8.71,0H65.323V17.419h4.355ZM4.355,15.242a4.342,4.342,0,0,1,4.213-4.361l2.114.108.436-1.711a6.514,6.514,0,0,1,6.3-4.924,6.43,6.43,0,0,1,4.074,1.477l1.369,1.106,1.369-1.106a6.43,6.43,0,0,1,4.074-1.477,6.518,6.518,0,0,1,6.3,4.924l.436,1.711,1.768-.075c.115-.005.231-.018.2-.027a4.355,4.355,0,1,1,0,8.71H8.71a4.359,4.359,0,0,1-4.355-4.355Zm0,52.258A62.769,62.769,0,0,1,21.8,23.952H37.016A8.674,8.674,0,0,0,43.229,9.187a62.22,62.22,0,0,1,18.04-4.512,6.463,6.463,0,0,0-.3,1.857v6.532h-8.71V34.839H39.194v15.5a10.864,10.864,0,0,0-7.621,1.232,10.622,10.622,0,0,0-5.444-1.494,10.857,10.857,0,0,0-9.99,6.626,8.71,8.71,0,0,0,1.28,17.326H34.839V91.451H30.484v27.159A63.086,63.086,0,0,1,4.355,67.5ZM44.5,126.29h46a62.9,62.9,0,0,1-46,0Zm60.014-7.679V91.451h-4.355V78.387h17.419a8.71,8.71,0,0,0,1.28-17.326,10.857,10.857,0,0,0-9.99-6.626,10.622,10.622,0,0,0-5.444,1.494A10.864,10.864,0,0,0,95.807,54.7V34.839H82.742V13.064h-8.71V6.532a6.477,6.477,0,0,0-.305-1.868,63.111,63.111,0,0,1,30.789,113.946Zm0,0" transform="translate(0 0)"/></g></g></svg>