<svg xmlns="http://www.w3.org/2000/svg" width="135" height="135" viewBox="0 0 135 135"><defs><style>.a{fill:#5cb7f5;}.a,.b,.c,.d,.e,.f,.g{stroke:#232323;stroke-width:4px;}.b{fill:#eaeaf0;}.c{fill:#ff958a;}.d{fill:#d8d8d8;}.e{fill:#f9d48a;}.f{fill:#d93922;}.g{fill:#fdd82e;}.h{stroke:none;}.i{fill:none;}</style></defs><g transform="translate(-1368 -2002)"><g class="a" transform="translate(1368 2002)"><circle class="h" cx="67.5" cy="67.5" r="67.5"/><circle class="i" cx="67.5" cy="67.5" r="65.5"/></g><path class="b" d="M103.55,104.259a8.174,8.174,0,0,1-8.114-8.211V80.859A2.354,2.354,0,0,0,93.1,78.492H85.93V72.647H93.1a8.174,8.174,0,0,1,8.116,8.212V96.047a2.339,2.339,0,1,0,4.678,0V55h5.779V96.047A8.174,8.174,0,0,1,103.55,104.259Z" transform="translate(1368.033 2006.034)"/><path class="b" d="M108.88,48.39H102.3a4.606,4.606,0,0,1-4.575-4.628V36.455a1.686,1.686,0,1,1,3.371,0v7.307a1.212,1.212,0,0,0,1.2,1.218h6.581a1.705,1.705,0,0,1,0,3.41Z" transform="translate(1367.598 2006.555)"/><path class="c" d="M99.491,26.75H86.625V32.6h9.283v6.686h9.948l.059.047V52.569h5.779V36.493Z" transform="translate(1368.007 2006.76)"/><path class="c" d="M85.93,26.75h9.956V32.6H85.93Z" transform="translate(1368.033 2006.76)"/><path class="d" d="M106.654,51.093h5.779v5.846h-5.779Z" transform="translate(1367.268 2006.135)"/><path class="e" d="M0,0H89.058V66.028H0Z" transform="translate(1457.337 2033.846) rotate(90)"/><path class="f" d="M26.81,87.437a1.7,1.7,0,0,1-1.685-1.705v-6.82a1.686,1.686,0,1,1,3.371,0v6.82A1.714,1.714,0,0,1,28,86.938,1.675,1.675,0,0,1,26.81,87.437Z" transform="translate(1370.276 2005.464)"/><rect class="c" width="66.029" height="43.447" rx="6" transform="translate(1391.308 2013.781)"/><path class="b" d="M0,0H20.064V42.914H0Z" transform="translate(1445.778 2025.472) rotate(90)"/><path class="c" d="M15.346,115.5H92.024v5.846H15.346Z" transform="translate(1370.636 2004.48)"/><ellipse class="b" cx="13.391" cy="13.547" rx="13.391" ry="13.547" transform="translate(1410.931 2077.446)"/><path class="g" d="M60.711,87.856a5.779,5.779,0,1,1-11.557,0c0-4.482,5.779-10.493,5.779-10.493s5.779,6.011,5.779,10.493Z" transform="translate(1369.389 2005.46)"/></g></svg>