<svg xmlns="http://www.w3.org/2000/svg" width="40" height="40" viewBox="0 0 40 40"><defs><style>.a{fill:#fff;}.b{fill:#3a5897;}</style></defs><g transform="translate(-882 -5852)"><circle class="a" cx="18" cy="18" r="18" transform="translate(884 5854)"/><path class="b" d="M23.84,3.84a20,20,0,1,0,20,20A20,20,0,0,0,23.84,3.84ZM30.4,24.954c-.8-.013-1.538.01-2.471-.03-.152-.007-2.584.029-2.576.074a22.864,22.864,0,0,1-.062,3.324c.009.637.2,6.4.11,8.53L20.58,36.9c-.02-1.811.068-3.674-.01-6.062-.016-.491-.032-5.659-.089-5.931l-3.126.021s-.013-1.907-.013-2.552v-1.9s2.486-.138,3.2-.2c0,0,.073-2.419.172-3.2a5.689,5.689,0,0,1,.651-2.592c.963-1.45,1.914-2.727,3.685-3.113.67-.146,5.087-1.015,5.251-.3l-.1,4.3a6.008,6.008,0,0,0-3.866.789,2.049,2.049,0,0,0-.94,1.766c-.041.486-.051,2.451-.051,2.451a12.294,12.294,0,0,0,2.3,0,25.06,25.06,0,0,1,2.8.15C30.446,21.822,30.394,24.826,30.4,24.954Z" transform="translate(878.16 5848.16)"/></g></svg>