<svg xmlns="http://www.w3.org/2000/svg" width="219.383" height="170" viewBox="0 0 219.383 170"><defs><style>.a{fill:#5cb7f5;}.b{fill:#232323;}.c{fill:#fcd770;}.d{fill:#ff958a;}.e{fill:#f5f7fa;}.f{fill:#e4ecfe;}.g{fill:none;stroke:#000;stroke-width:5.4px;}</style></defs><g transform="translate(-436 -3077)"><ellipse class="a" cx="78.211" cy="81.074" rx="78.211" ry="81.074" transform="translate(481.672 3077)"/><path class="b" d="M243.722,23.693A76.5,76.5,0,0,0,188.538,0h0a76.5,76.5,0,0,0-55.184,23.693,83.031,83.031,0,0,0,0,114.418,76.113,76.113,0,0,0,110.368,0,83.031,83.031,0,0,0,0-114.418Zm-3.693,110.59a71.028,71.028,0,0,1-102.983,0,77.484,77.484,0,0,1,0-106.761,71.028,71.028,0,0,1,102.983,0,77.484,77.484,0,0,1,0,106.761Z" transform="translate(371.387 3077.183)"/><path class="c" d="M194.046,422.223a9.023,9.023,0,1,1-9.023-9.023A9.025,9.025,0,0,1,194.046,422.223Z" transform="translate(323.652 2813.663)"/><path class="c" d="M64.446,422.223a9.023,9.023,0,1,1-9.023-9.023A9.025,9.025,0,0,1,64.446,422.223Z" transform="translate(405.765 2813.663)"/><g transform="translate(450.074 3224.772)"><path class="b" d="M188.986,410.439a10.941,10.941,0,0,0-7.873-3.24,11.231,11.231,0,0,0-7.874,3.24,10.941,10.941,0,0,0-3.24,7.874,11.231,11.231,0,0,0,3.24,7.873,10.941,10.941,0,0,0,7.874,3.24,11.231,11.231,0,0,0,7.873-3.24,10.941,10.941,0,0,0,3.24-7.873h0A11.231,11.231,0,0,0,188.986,410.439Zm-7.873,14.806a6.9,6.9,0,1,1,4.912-2.021A6.924,6.924,0,0,1,181.112,425.245Z" transform="translate(-124.847 -407.198)"/><path class="b" d="M51.512,407.2h0a11.231,11.231,0,0,0-7.874,3.24,10.941,10.941,0,0,0-3.24,7.874,11.231,11.231,0,0,0,3.24,7.873,10.94,10.94,0,0,0,7.874,3.24,11.231,11.231,0,0,0,7.873-3.24,10.941,10.941,0,0,0,3.24-7.873h0A11.062,11.062,0,0,0,51.512,407.2Zm0,18.046a6.9,6.9,0,1,1,4.912-2.021A6.924,6.924,0,0,1,51.512,425.246Z" transform="translate(-40.398 -407.199)"/></g><path class="d" d="M11.75,352.191,21.784,349.3a4.493,4.493,0,0,0,2.439-1.707l9.023-12.612a4.524,4.524,0,0,1,3.693-1.881H68.4a4.572,4.572,0,0,1,3.693,1.881l9.023,12.612a4.493,4.493,0,0,0,2.439,1.707l11.009,3.17a4.5,4.5,0,0,1,3.275,4.32v10.138a4.565,4.565,0,0,1-4.529,4.529H84.284a9.023,9.023,0,0,0-18.046,0H39.1a9.023,9.023,0,0,0-18.046,0H12.029A4.565,4.565,0,0,1,7.5,366.928V356.79a4.444,4.444,0,0,1,3.275-4.32Z" transform="translate(431.113 2865.857)"/><path class="b" d="M95.527,351.738h0a7.2,7.2,0,0,0-1.428-4.285,6.875,6.875,0,0,0-3.728-2.543h0l-11.009-3.17a1.866,1.866,0,0,1-1.045-.732L69.329,328.4h0a7.086,7.086,0,0,0-5.818-3H32.017a7.182,7.182,0,0,0-5.818,3h0L17.21,341.008a1.867,1.867,0,0,1-1.045.732L6.132,344.631l-.975.279h0A7.066,7.066,0,0,0,0,351.738H0v10.138H0a7.188,7.188,0,0,0,.557,2.752,7.124,7.124,0,0,0,6.55,4.355H18.743V366.37a6.569,6.569,0,0,1,.488-2.508,6.4,6.4,0,0,1,5.923-3.9h0a6.57,6.57,0,0,1,2.508.488,6.4,6.4,0,0,1,3.9,5.923v2.613h32.33V366.37a6.569,6.569,0,0,1,.488-2.508,6.359,6.359,0,0,1,2.334-2.822,6.238,6.238,0,0,1,3.588-1.08h0a6.569,6.569,0,0,1,2.508.488,6.359,6.359,0,0,1,2.822,2.334,6.238,6.238,0,0,1,1.08,3.588v2.613H88.35a7.188,7.188,0,0,0,2.752-.557,7.124,7.124,0,0,0,4.355-6.55h0l.07-10.138Zm-6.062,11.741a1.875,1.875,0,0,1-1.08.314H81.661a9.483,9.483,0,0,0-.627-1.916,11.632,11.632,0,0,0-10.73-7.107h-.035a11.672,11.672,0,0,0-11.357,9.023H36.441a9.484,9.484,0,0,0-.627-1.916,11.632,11.632,0,0,0-10.73-7.107h0a11.672,11.672,0,0,0-11.357,9.023H7.142a2.278,2.278,0,0,1-.732-.139,1.813,1.813,0,0,1-.836-.7,1.876,1.876,0,0,1-.314-1.08V351.738h0a1.979,1.979,0,0,1,.383-1.15,1.891,1.891,0,0,1,.975-.662l.975-.279h0l10.033-2.892h0a7.311,7.311,0,0,0,3.832-2.683h0l9.023-12.612h0a1.931,1.931,0,0,1,1.533-.8H63.511a1.882,1.882,0,0,1,1.533.8l9.023,12.646h0a7.123,7.123,0,0,0,3.832,2.683l11.009,3.17h0a1.761,1.761,0,0,1,.975.662,1.827,1.827,0,0,1,.383,1.15h0v10.138a2.277,2.277,0,0,1-.139.732A1.741,1.741,0,0,1,89.465,363.478Z" transform="translate(436 2870.875)"/><path class="e" d="M114.634,354.9l6.759,9.023H85.3l6.759-9.023Z" transform="translate(380.417 2850.493)"/><rect class="b" width="4.529" height="4.529" transform="translate(458.889 3234.458)"/><rect class="b" width="4.529" height="4.529" transform="translate(504.074 3234.458)"/><path class="b" d="M92.546,368.711h4.529v-6.759h20.311L107.213,348.4H82.373L72.2,361.952H92.511v6.759Zm-7.908-15.817h20.311l3.379,4.529H81.258Z" transform="translate(388.953 2855.887)"/><rect class="b" width="4.529" height="4.529" transform="translate(483.12 3231.357)"/><path class="e" d="M231.368,93.977A8.344,8.344,0,0,1,228.093,110H191.861a8.361,8.361,0,0,1,0-16.722c.139,0,.244.035.383.035a11.037,11.037,0,0,1,17.733-5.853A11.051,11.051,0,0,1,225.515,89a11.193,11.193,0,0,1,2.195,4.355c.139,0,.244-.035.383-.035a8.214,8.214,0,0,1,3.275.662Z" transform="translate(319.399 3023.067)"/><path class="b" d="M232.4,90.843a11.084,11.084,0,0,0-4.877-4.111h-.035l-2.961-1.254a13.864,13.864,0,0,0-1.846-3A13.566,13.566,0,0,0,212.128,77.5a13.387,13.387,0,0,0-7,1.951,12.952,12.952,0,0,0-3.728-1.533,13.4,13.4,0,0,0-3.275-.418,13.694,13.694,0,0,0-12.646,8.466,10.394,10.394,0,0,0-2.752.766,11.045,11.045,0,0,0-4.843,3.972A10.9,10.9,0,0,0,176,96.835a11.053,11.053,0,0,0,4.843,9.128,10.9,10.9,0,0,0,6.132,1.881h36.3a10.974,10.974,0,0,0,10.9-10.974A11.094,11.094,0,0,0,232.4,90.843Zm-3.9,8.222a5.779,5.779,0,0,1-5.3,3.519H186.974a5.787,5.787,0,0,1-2.23-.453,5.524,5.524,0,0,1-2.543-2.09,5.619,5.619,0,0,1-.975-3.205,5.788,5.788,0,0,1,.453-2.23,5.736,5.736,0,0,1,5.261-3.519h.07c.07,0,.209.035.383.035h2.055l.488-1.986a8.375,8.375,0,0,1,3.031-4.634,8.553,8.553,0,0,1,5.156-1.777,8.016,8.016,0,0,1,2.021.244,8.275,8.275,0,0,1,3.31,1.672L205.125,86l1.672-1.359a8.352,8.352,0,0,1,5.33-1.916,8.925,8.925,0,0,1,3.554.766,8.491,8.491,0,0,1,4.634,5.609l.488,1.986h2.055c.244,0,.383-.035.453-.035a4.96,4.96,0,0,1,2.125.453l.07.035a5.667,5.667,0,0,1,2.543,2.125,5.9,5.9,0,0,1,.941,3.135A6.283,6.283,0,0,1,228.5,99.065Z" transform="translate(324.262 3027.845)"/><path class="d" d="M329.595,174.3h-92.67L216.3,205.9H350.219Z" transform="translate(302.446 2967.236)"/><path class="c" d="M393.611,182.559v16.3H359.4v-16.3L376.506,165Z" transform="translate(207.014 2974.199)"/><rect class="a" width="10.87" height="14.144" transform="translate(579.91 3158.314)"/><rect class="f" width="123.015" height="62.082" transform="translate(524.181 3175.232)"/><rect class="a" width="23.969" height="23.969" transform="translate(611.033 3194.24)"/><rect class="a" width="23.934" height="23.969" transform="translate(532.71 3194.24)"/><path class="c" d="M384.064,315A13.069,13.069,0,0,0,371,328.064v31.6h26.129v-31.6A13.047,13.047,0,0,0,384.064,315Z" transform="translate(199.39 2877.651)"/><path d="M347.415,193.242l-20.624-31.564a2.689,2.689,0,0,0-2.264-1.219H282.581l-2.474-2.474a2.671,2.671,0,0,0-3.832,0h0l-2.474,2.474H231.856a2.689,2.689,0,0,0-2.264,1.219l-20.624,31.564a2.707,2.707,0,0,0,.8,3.763,2.9,2.9,0,0,0,1.5.453h2.717v59.365a2.721,2.721,0,0,0,2.717,2.717H339.716a2.721,2.721,0,0,0,2.717-2.717V238.044a2.718,2.718,0,0,0-5.435,0V254.1H293.973V225.223a15.782,15.782,0,0,0-31.564-.174v29.02H219.419V197.457H337v16.061a2.718,2.718,0,0,0,5.435,0V197.457h2.717a2.721,2.721,0,0,0,2.717-2.717A2.533,2.533,0,0,0,347.415,193.242ZM267.844,237.7h2.3a2.718,2.718,0,0,0,0-5.435h-2.3v-7.037a10.347,10.347,0,1,1,20.694-.139V254.07H267.844Zm24.735-59.574v13.866h-6.236V180.56a2.721,2.721,0,0,0-2.717-2.717h-10.87a2.721,2.721,0,0,0-2.717,2.717v11.427H263.8V178.122l14.388-14.388Zm-76.331,13.866,17.071-26.129h35.048l-13.03,13.03a2.671,2.671,0,0,0,0,3.832,2.729,2.729,0,0,0,3.031.557v8.675h-42.12Zm59.225,0v-8.71h5.435v8.71Zm22.54,0v-8.675a2.711,2.711,0,0,0,3.031-4.39l-13.03-13.03h35.048l17.071,26.129-42.12-.035Z" transform="translate(307.514 2980.492)"/><path d="M476.117,314.935a2.721,2.721,0,0,0-2.717,2.717v23.934a2.721,2.721,0,0,0,2.717,2.717h23.969a2.721,2.721,0,0,0,2.717-2.717V317.617a2.721,2.721,0,0,0-2.717-2.717H476.117Zm21.217,12.507h-6.55V320.37h6.55ZM485.35,320.37v7.072h-6.515V320.37Zm-6.515,12.507h6.55v5.992h-6.55Zm11.95,5.992v-5.992h6.55v5.992Z" transform="translate(134.916 2876.656)"/><path d="M262.017,314.935a2.721,2.721,0,0,0-2.717,2.717v23.934a2.721,2.721,0,0,0,2.717,2.717h23.969a2.721,2.721,0,0,0,2.717-2.717V317.617a2.721,2.721,0,0,0-2.717-2.717H262.017Zm21.217,12.507h-6.55V320.37h6.55Zm-11.95-7.072v7.072h-6.55V320.37Zm-6.55,12.507h6.55v5.992h-6.55Zm11.984,5.992v-5.992h6.515v5.992Z" transform="translate(270.693 2876.656)"/><path class="g" d="M2637.2,3219.157v-26.852" transform="translate(-1990)"/></g></svg>