<svg xmlns="http://www.w3.org/2000/svg" width="34.664" height="34.729" viewBox="0 0 34.664 34.729"><defs><style>.a{fill:#226edb;stroke:#226edb;}</style></defs><g transform="translate(0.154 0.516)"><g transform="translate(0.344 0)"><path class="a" d="M26.964,46.34a3.316,3.316,0,0,0-2.4-1.1,3.429,3.429,0,0,0-2.433,1.1l-2.248,2.241c-.185-.1-.37-.192-.548-.285-.256-.128-.5-.249-.7-.377a24.437,24.437,0,0,1-5.856-5.336,14.417,14.417,0,0,1-1.921-3.031c.583-.534,1.124-1.089,1.651-1.622.2-.2.4-.406.6-.6a3.264,3.264,0,0,0,0-4.924l-1.942-1.942c-.221-.221-.448-.448-.662-.676-.427-.441-.875-.9-1.338-1.323A3.368,3.368,0,0,0,6.77,27.406a3.485,3.485,0,0,0-2.419,1.046l-.014.014L1.918,30.907A5.206,5.206,0,0,0,.374,34.215a12.473,12.473,0,0,0,.911,5.28,30.636,30.636,0,0,0,5.443,9.079,33.484,33.484,0,0,0,11.15,8.73,17.372,17.372,0,0,0,6.261,1.85c.149.007.306.014.448.014A5.361,5.361,0,0,0,28.693,57.4c.007-.014.021-.021.028-.036a16.175,16.175,0,0,1,1.245-1.288c.306-.292.619-.6.925-.918A3.55,3.55,0,0,0,31.966,52.7a3.42,3.42,0,0,0-1.1-2.441Zm2.547,7.492c-.007,0-.007.007,0,0-.277.3-.562.569-.868.868a18.71,18.71,0,0,0-1.373,1.423,3.43,3.43,0,0,1-2.675,1.131c-.107,0-.221,0-.327-.007a15.432,15.432,0,0,1-5.55-1.665,31.607,31.607,0,0,1-10.5-8.225,28.887,28.887,0,0,1-5.123-8.531,10.159,10.159,0,0,1-.8-4.454,3.266,3.266,0,0,1,.982-2.113L5.7,29.832a1.617,1.617,0,0,1,1.082-.505,1.522,1.522,0,0,1,1.039.5l.021.021c.434.406.847.825,1.281,1.274.221.228.448.455.676.69l1.942,1.942a1.358,1.358,0,0,1,0,2.206c-.206.206-.406.413-.612.612-.6.612-1.167,1.181-1.786,1.736-.014.014-.028.021-.036.036a1.451,1.451,0,0,0-.37,1.615l.021.064a15.6,15.6,0,0,0,2.3,3.75l.007.007a26.116,26.116,0,0,0,6.318,5.749,9.714,9.714,0,0,0,.875.477c.256.128.5.249.7.377.028.014.057.036.085.05a1.542,1.542,0,0,0,.7.178,1.521,1.521,0,0,0,1.082-.491l2.433-2.433a1.61,1.61,0,0,1,1.074-.534,1.449,1.449,0,0,1,1.025.519l.014.014L29.5,51.605A1.407,1.407,0,0,1,29.511,53.832Z" transform="translate(-0.344 -25.456)"/><path class="a" d="M245.734,87.831a9.157,9.157,0,0,1,7.457,7.457.955.955,0,0,0,.946.8,1.269,1.269,0,0,0,.164-.014.962.962,0,0,0,.79-1.11,11.073,11.073,0,0,0-9.022-9.022.966.966,0,0,0-1.11.783A.95.95,0,0,0,245.734,87.831Z" transform="translate(-227.54 -79.811)"/><path class="a" d="M264.748,14.872A18.233,18.233,0,0,0,249.891.015a.959.959,0,1,0-.313,1.893,16.285,16.285,0,0,1,13.277,13.277.955.955,0,0,0,.946.8,1.27,1.27,0,0,0,.164-.014A.943.943,0,0,0,264.748,14.872Z" transform="translate(-231.099 0)"/></g></g></svg>