<svg xmlns="http://www.w3.org/2000/svg" width="40" height="40" viewBox="0 0 40 40"><defs><style>.a{fill:#fff;}.b{fill:#c12025;}</style></defs><g transform="translate(-1002 -5852)"><circle class="a" cx="18" cy="18" r="18" transform="translate(1004 5854)"/><g transform="translate(1002 5852)"><path class="b" d="M47.372,42.312c-.344-.2-.693-.381-1.018-.61s-.582-.438-.9-.651c-.167-.114-.534-.225-.534-.335v.9c0,.516-.039,3.173-.033,3.506.008.557-.035,1.114-.015,1.672.019.531.023,1.039,0,1.594,0,0,1.327-.645,1.5-.756.681-.429,1.348-.894,2.046-1.293.343-.2.7-.369,1.025-.591.3-.2,1.451-1.172,1.491-1.147-.533-.325-1.049-.666-1.6-.954C48.633,43.273,48.064,42.71,47.372,42.312Z" transform="translate(-26.966 -24.587)"/><path class="b" d="M23.84,3.84a20,20,0,1,0,20,20A20,20,0,0,0,23.84,3.84ZM34.825,28.179a5.985,5.985,0,0,1-1.134,2.76c-.724.833-1.971.614-2.967.685-2.422.175-4.838.011-7.261.075-1,.026-1.978,0-2.972-.046s-2.023.056-3.011-.023c-.6-.049-1.2-.05-1.8-.124a2.83,2.83,0,0,1-1.566-.491,5.492,5.492,0,0,1-.387-.655l-.221-.385c-.949-2.024-.93-4.253-.934-6.464,0-.821.1-1.639.075-2.461-.014-.531.227-1.033.26-1.568a3.514,3.514,0,0,1,.394-1.516A3,3,0,0,1,15,16.253a5.685,5.685,0,0,1,1.846-.237c.6.01,1.2.008,1.8,0,1.215-.015,2.428-.051,3.643-.047,1.056,0,2.126.008,3.18.074s2.114-.036,3.172-.009c.872.022,1.745.02,2.615.084a4.312,4.312,0,0,1,1.976.489,2.218,2.218,0,0,1,.87.863,9.465,9.465,0,0,1,.877,3.216c.064,1.16.079,2.322.11,3.484q.008.3.018.6A14.213,14.213,0,0,1,34.825,28.179Z" transform="translate(-3.84 -3.84)"/></g></g></svg>