<svg xmlns="http://www.w3.org/2000/svg" width="135" height="135" viewBox="0 0 135 135"><defs><style>.a{fill:#5cb7f5;}.b{fill:#ff958a;}.c{fill:#f5f7fa;}.d{fill:#f9d48a;}.e{fill:#232323;}</style></defs><g transform="translate(2439 1470)"><path class="a" d="M138.645,73.323A65.323,65.323,0,1,1,73.323,8,65.323,65.323,0,0,1,138.645,73.323Zm0,0" transform="translate(-2444.823 -1475.823)"/><path class="b" d="M136.71,112v17.419L128,120.71V112Zm0,0" transform="translate(-2532.161 -1551.516)"/><path class="c" d="M225.984,80v8.71H128V80Zm0,0" transform="translate(-2532.161 -1528.226)"/><path class="d" d="M240.565,112H160v47.9h89.274V112Zm0,0" transform="translate(-2555.452 -1551.516)"/><path class="c" d="M249.274,288v21.774h-8.71a13.065,13.065,0,0,0-26.129,0,13.065,13.065,0,0,0-26.129,0H160V288Zm0,0" transform="translate(-2555.452 -1679.613)"/><path class="b" d="M49.371,203.573v21.774h-8.71a13.069,13.069,0,0,0-25.389-4.355l-.653.326A64.727,64.727,0,0,1,8,192.686c0-1.612.065-3.223.2-4.791a.031.031,0,0,1,0-.044,17.422,17.422,0,0,1,17.224-14.762H47.194L48.282,172l1.089,1.089Zm0,0" transform="translate(-2444.823 -1595.186)"/><path class="d" d="M373.065,320a13.065,13.065,0,0,1,3,25.78,13.5,13.5,0,0,1-3,.349,13.065,13.065,0,1,1,0-26.129Zm0,0" transform="translate(-2701.016 -1702.903)"/><path class="d" d="M290.129,333.065A13.065,13.065,0,1,1,277.065,320,13.075,13.075,0,0,1,290.129,333.065Zm0,0" transform="translate(-2631.145 -1702.903)"/><path class="d" d="M44.84,346.586a64.475,64.475,0,0,1-12.52-17.55l.653-.326A13.067,13.067,0,1,1,45.3,346.129Zm0,0" transform="translate(-2462.523 -1702.903)"/><path class="c" d="M400.71,356.355A4.355,4.355,0,1,1,396.355,352,4.355,4.355,0,0,1,400.71,356.355Zm0,0" transform="translate(-2724.306 -1726.194)"/><path class="c" d="M304.71,356.355A4.355,4.355,0,1,1,300.355,352,4.355,4.355,0,0,1,304.71,356.355Zm0,0" transform="translate(-2654.436 -1726.194)"/><path class="c" d="M72.71,356.355A4.355,4.355,0,1,1,68.355,352,4.355,4.355,0,0,1,72.71,356.355Zm0,0" transform="translate(-2485.581 -1726.194)"/><path class="c" d="M63.952,208v17.419H40v-8.71A8.707,8.707,0,0,1,48.71,208Zm0,0" transform="translate(-2468.113 -1621.387)"/><g transform="translate(-2439 -1470)"><path class="e" d="M294.532,357.065A6.532,6.532,0,1,0,288,350.532,6.541,6.541,0,0,0,294.532,357.065Zm0-8.71a2.177,2.177,0,1,1-2.177,2.177A2.179,2.179,0,0,1,294.532,348.355Zm0,0" transform="translate(-209.613 -250.371)"/><path class="e" d="M69.065,350.532a6.532,6.532,0,1,0-6.532,6.532A6.541,6.541,0,0,0,69.065,350.532Zm-8.71,0a2.177,2.177,0,1,1,2.177,2.177A2.179,2.179,0,0,1,60.355,350.532Zm0,0" transform="translate(-40.758 -250.371)"/><path class="e" d="M390.532,344a6.532,6.532,0,1,0,6.532,6.532A6.541,6.541,0,0,0,390.532,344Zm0,8.71a2.177,2.177,0,1,1,2.177-2.177A2.179,2.179,0,0,1,390.532,352.71Zm0,0" transform="translate(-279.484 -250.371)"/><path class="e" d="M135,19.6H115.031A67.468,67.468,0,0,0,.183,62.79,19.529,19.529,0,0,0,0,65.323H.054C.033,66.048,0,66.771,0,67.5a67.5,67.5,0,0,0,115.7,47.25l-.06-.06a15.274,15.274,0,0,0,10.474-12.352H135Zm-4.355,8.71h-6.532v4.355h6.532V76.21H115.4V58.79h-4.355V76.21h-4.355V32.661h4.355V54.435H115.4V32.661h4.355V28.306H37.016V23.952h93.629ZM67.5,47.9V76.21H54.435V32.661H67.5V43.548h4.355V32.661H84.919V76.21H71.855V47.9ZM37.016,32.661h4.355v9.986l-4.355-4.355Zm8.71,0h4.355V76.21H45.726Zm43.548,0h13.065V76.21H89.274ZM67.5,4.355A62.6,62.6,0,0,1,108.625,19.6H32.661V40.1l5.631,5.631H19.6A19.5,19.5,0,0,0,6.659,50.642,63.246,63.246,0,0,1,67.5,4.355ZM4.516,63.237A15.249,15.249,0,0,1,19.6,50.081H41.371v47.9H36.842A15.195,15.195,0,0,0,9.169,91.663,62.811,62.811,0,0,1,4.355,67.5c0-1.435.065-2.853.162-4.263Zm6.924,33.27.068.024a10.887,10.887,0,1,1,10.327,14.51A63.443,63.443,0,0,1,11.44,96.507Zm14.35,18.341a15.262,15.262,0,0,0,11.052-12.51h33.01a15.212,15.212,0,0,0,28.132,5.633,15.256,15.256,0,0,0,10.846,7.253,63.029,63.029,0,0,1-83.04-.376Zm48.242-14.687a10.887,10.887,0,1,1,10.887,10.887A10.9,10.9,0,0,1,74.032,100.161Zm37.016,10.887a10.887,10.887,0,1,1,10.887-10.887A10.9,10.9,0,0,1,111.048,111.048Zm15.068-13.065a15.212,15.212,0,0,0-28.132-5.633,15.212,15.212,0,0,0-28.132,5.633H45.726V80.564h84.919V97.984Zm0,0" transform="translate(0)"/><path class="e" d="M60.306,200H42.887A10.9,10.9,0,0,0,32,210.887v10.887H60.306Zm-4.355,17.419h-19.6v-6.532a6.541,6.541,0,0,1,6.532-6.532H55.952Zm0,0" transform="translate(-23.29 -145.565)"/></g></g></svg>