<svg xmlns="http://www.w3.org/2000/svg" width="135" height="135" viewBox="0 0 135 135"><defs><style>.a{fill:#5cb7f5;}.b{fill:#ff958a;}.c{fill:#f5f7fa;}.d{fill:#f9d48a;}.e{fill:#232323;}</style></defs><g transform="translate(3061 1428)"><g transform="translate(-3061 -1428)"><g transform="translate(0 0)"><path class="a" d="M138.645,73.323A65.323,65.323,0,1,1,73.323,8,65.323,65.323,0,0,1,138.645,73.323Zm0,0" transform="translate(-5.823 -5.823)"/><path class="b" d="M60.258,211.548v30.484H34.129a65.267,65.267,0,0,1-22.645-73.27A6.51,6.51,0,0,1,14.532,168H53.726a6.523,6.523,0,0,1,6.532,6.532v28.306H55.9v8.71Zm0,0" transform="translate(-5.823 -122.274)"/><g transform="translate(10.887 58.79)"><path class="c" d="M40,216H74.839v13.065H40Zm0,0" transform="translate(-40 -216)"/><path class="c" d="M392,392h13.065v17.419H392Zm0,0" transform="translate(-296.194 -344.097)"/><path class="c" d="M312,392h13.065v17.419H312Zm0,0" transform="translate(-237.968 -344.097)"/><path class="c" d="M232,392h13.065v17.419H232Zm0,0" transform="translate(-179.742 -344.097)"/></g><path class="d" d="M274.032,328v34.839h-8.71V345.419H252.258v17.419h-8.71V345.419H230.484v17.419h-8.71V345.419H208.71v17.419H200V328Zm0,0" transform="translate(-145.565 -238.726)"/><path class="d" d="M404.673,264l.392,8.71H392l.392-8.71Zm0,0" transform="translate(-285.307 -192.145)"/><path class="d" d="M324.673,264l.392,8.71H312l.392-8.71Zm0,0" transform="translate(-227.081 -192.145)"/><path class="d" d="M244.673,264l.392,8.71H232l.392-8.71Zm0,0" transform="translate(-168.855 -192.145)"/><path class="c" d="M266.742,296v8.71H184V296Zm0,0" transform="translate(-133.919 -215.435)"/><path class="c" d="M403.936,120l1.785,39.194h-12.28L395.227,120Zm0,0" transform="translate(-286.356 -87.339)"/><path class="c" d="M323.936,120l1.785,39.194h-12.28L315.227,120Zm0,0" transform="translate(-228.13 -87.339)"/><path class="c" d="M243.936,120l1.785,39.194h-12.28L235.226,120Zm0,0" transform="translate(-169.904 -87.339)"/><path class="e" d="M328,26.129h4.355c0-1.224.472-1.751,1.542-2.817a7.586,7.586,0,0,0,0-11.793c-1.07-1.067-1.542-1.592-1.542-2.817s.472-1.745,1.539-2.811A7.759,7.759,0,0,0,336.71,0h-4.355c0,1.222-.472,1.744-1.539,2.811A7.758,7.758,0,0,0,328,8.7a7.769,7.769,0,0,0,2.813,5.9c1.07,1.066,1.542,1.594,1.542,2.817s-.472,1.75-1.542,2.817A7.769,7.769,0,0,0,328,26.129Zm0,0" transform="translate(-238.726 0)"/><path class="e" d="M135,67.5a67.335,67.335,0,0,0-16.2-43.849c.108-.113.2-.213.326-.339a7.586,7.586,0,0,0,0-11.793c-1.07-1.067-1.542-1.592-1.542-2.817s.472-1.745,1.539-2.811A7.758,7.758,0,0,0,121.936,0h-4.355c0,1.222-.472,1.744-1.539,2.811a7.758,7.758,0,0,0-2.815,5.89,7.769,7.769,0,0,0,2.813,5.9c1.07,1.066,1.542,1.594,1.542,2.817s-.472,1.75-1.542,2.817a7.769,7.769,0,0,0-2.813,5.9h1.957q1.832,2.11,3.46,4.355H106.789l-2.177,47.9h-4.548l-2.177-47.9H85.015l-2.177,47.9H78.289l-2.177-47.9H63.241l-2.177,47.9H56.613V52.258a8.718,8.718,0,0,0-8.71-8.71h-8.71V37.016h4.355V32.662H30.484v4.355h4.355v6.532H21.774V37.016h4.355V32.662H14.87A63.128,63.128,0,0,1,66.734,4.374,6.967,6.967,0,0,0,65.323,8.7a7.769,7.769,0,0,0,2.813,5.9c1.07,1.066,1.542,1.594,1.542,2.817s-.472,1.75-1.542,2.817a7.769,7.769,0,0,0-2.813,5.9h4.355c0-1.224.472-1.751,1.542-2.817a7.586,7.586,0,0,0,0-11.793c-1.07-1.067-1.542-1.592-1.542-2.817s.472-1.745,1.54-2.811A7.758,7.758,0,0,0,74.032,0H69.678c0,.021-.006.035-.006.056C68.948.033,68.229,0,67.5,0a67.5,67.5,0,1,0,33.151,126.29h29.994V91.452H135V78.387h-.889A68.058,68.058,0,0,0,135,67.5Zm-4.355,0a63.757,63.757,0,0,1-.954,10.887H121.84l-2.108-46.381A63.007,63.007,0,0,1,130.645,67.5ZM115.5,34.839l1.583,34.839h-7.715l1.583-34.839ZM109.17,74.032h8.11l.2,4.355h-8.508ZM93.725,34.839l1.583,34.839H87.593l1.583-34.839ZM87.4,74.032h8.11l.2,4.355H87.2ZM71.951,34.839l1.583,34.839H65.819L67.4,34.839ZM65.621,74.032h8.11l.2,4.355H65.423Zm-48.2-37.016v6.532H9.086a62.668,62.668,0,0,1,3.978-7.993v1.461ZM4.355,67.5A62.879,62.879,0,0,1,7.407,48.126a4.3,4.3,0,0,1,1.3-.222H47.9a4.359,4.359,0,0,1,4.355,4.355V78.387H47.9V91.452h4.355v26.129H29.1A63.067,63.067,0,0,1,4.355,67.5ZM67.5,130.645a62.723,62.723,0,0,1-31.945-8.71h16.7v4.355H90.5a63.242,63.242,0,0,1-23,4.355Zm6.532-8.71h-8.71V108.871h8.71Zm21.774,0H87.1V108.871h8.71Zm21.774,0h-8.71V108.871h8.71Zm8.71,0h-4.355V104.516H104.516v17.419h-4.355V104.516H82.742v17.419H78.387V104.516H60.968v17.419H56.613V91.452H126.29ZM130.645,87.1H52.258V82.742h78.387Zm0,0" transform="translate(0 0)"/><path class="e" d="M71.194,208H32v17.419H71.194Zm-4.355,13.065H36.355v-8.71H66.839Zm0,0" transform="translate(-23.29 -151.387)"/></g></g></g></svg>