<svg xmlns="http://www.w3.org/2000/svg" width="135" height="135" viewBox="0 0 135 135"><defs><style>.a{fill:#5cb7f5;}.b{fill:#f5f7fa;}.c{fill:#f9d48a;}.d{fill:#ff958a;}.e{fill:#232323;}</style></defs><g transform="translate(1239 1470.975)"><path class="a" d="M138.645,73.323A65.323,65.323,0,1,1,73.323,8,65.323,65.323,0,0,1,138.645,73.323Zm0,0" transform="translate(-1244.823 -1476.797)"/><path class="b" d="M177.23,432H93.922a65.4,65.4,0,0,0,13.587,8.8l.044-.087h56.613l.044.065a64.889,64.889,0,0,0,13.26-8.513Zm0,0" transform="translate(-1307.359 -1785.394)"/><path class="c" d="M233.419,376.71a8.71,8.71,0,1,1-8.71-8.71A8.71,8.71,0,0,1,233.419,376.71Zm0,0" transform="translate(-1396.21 -1738.814)"/><path class="c" d="M73.419,376.71A8.71,8.71,0,1,1,64.71,368,8.71,8.71,0,0,1,73.419,376.71Zm0,0" transform="translate(-1279.758 -1738.814)"/><path class="d" d="M12.093,282.443l9.69-2.788A4.4,4.4,0,0,0,24.135,278l8.687-12.173A4.346,4.346,0,0,1,36.371,264H66.725a4.346,4.346,0,0,1,3.549,1.829L78.962,278a4.4,4.4,0,0,0,2.352,1.654L91.939,282.7a4.338,4.338,0,0,1,3.158,4.181v9.777a4.367,4.367,0,0,1-4.355,4.355h-8.71a8.71,8.71,0,0,0-17.419,0H38.484a8.71,8.71,0,0,0-17.419,0h-8.71A4.367,4.367,0,0,1,8,296.662v-9.777a4.338,4.338,0,0,1,3.158-4.181Zm0,0" transform="translate(-1244.823 -1663.12)"/><path class="b" d="M132.306,296l6.532,8.71H104l6.532-8.71Zm0,0" transform="translate(-1314.694 -1686.41)"/><path class="c" d="M377.833,379.279a62.079,62.079,0,0,1-6.707,6.4l-.239-.262H360V368H377.42v10.887Zm0,0" transform="translate(-1501.016 -1738.813)"/><path class="b" d="M384.71,199.067v45.726H376V199.067l.065-.349a26.562,26.562,0,0,0,8.58,0Zm0,0" transform="translate(-1512.661 -1615.607)"/><path class="c" d="M348.258,34.129a26.069,26.069,0,0,1-21.839,25.78,26.562,26.562,0,0,1-8.58,0,26.127,26.127,0,0,1-10.778-47.119A25.857,25.857,0,0,1,322.129,8a26.122,26.122,0,0,1,26.129,26.129Zm0,0" transform="translate(-1454.436 -1476.797)"/><path class="b" d="M362.839,57.419a17.206,17.206,0,0,1-3.68,10.669l-3.071,3.071a17.2,17.2,0,0,1-10.669,3.68A17.415,17.415,0,0,1,328,57.419a17.2,17.2,0,0,1,3.68-10.669l3.071-3.071A17.2,17.2,0,0,1,345.419,40,17.415,17.415,0,0,1,362.839,57.419Zm0,0" transform="translate(-1477.726 -1500.088)"/><g transform="translate(-1239 -1470.975)"><path class="e" d="M368,72V91.6h4.355V85.065h4.355a6.532,6.532,0,1,0,0-13.065Zm10.887,6.532a2.182,2.182,0,0,1-2.177,2.177h-4.355V76.355h4.355A2.182,2.182,0,0,1,378.887,78.532Zm0,0" transform="translate(-267.839 -52.403)"/><path class="e" d="M339.6,91.49A19.408,19.408,0,0,0,351.6,87.362l-2.672-3.438a15.087,15.087,0,0,1-9.335,3.212,15.259,15.259,0,0,1-15.242-15.242,15.087,15.087,0,0,1,3.212-9.335l-3.438-2.672A19.408,19.408,0,0,0,320,71.893,19.621,19.621,0,0,0,339.6,91.49Zm0,0" transform="translate(-232.903 -43.587)"/><path class="e" d="M359.893,36.355A15.259,15.259,0,0,1,375.135,51.6a15.087,15.087,0,0,1-3.212,9.335l3.438,2.672A19.408,19.408,0,0,0,379.49,51.6a19.621,19.621,0,0,0-19.6-19.6,19.408,19.408,0,0,0-12.007,4.128l2.672,3.438a15.087,15.087,0,0,1,9.335-3.212Zm0,0" transform="translate(-253.2 -23.29)"/><path class="e" d="M135,28.306A28.258,28.258,0,0,0,91.556,4.427,67.534,67.534,0,0,0,3.49,88.975,6.554,6.554,0,0,0,0,94.737v9.779a6.541,6.541,0,0,0,6.532,6.532h6.752a10.906,10.906,0,0,0,10.667,8.71h.843A67.51,67.51,0,0,0,130.578,43.432,28.1,28.1,0,0,0,135,28.306Zm-4.355,0A23.952,23.952,0,1,1,106.694,4.355,23.98,23.98,0,0,1,130.645,28.306ZM104.516,97.984V56.5c.721.056,1.442.111,2.177.111s1.457-.054,2.177-.111V97.984ZM67.5,4.355A62.925,62.925,0,0,1,87.473,7.586a28.237,28.237,0,0,0,12.688,48.237V97.984H95.806V115.4H76.153a10.779,10.779,0,0,0,2.012-4.355h6.754a6.541,6.541,0,0,0,6.532-6.532V94.737a6.562,6.562,0,0,0-4.738-6.281L76.092,85.42a2.175,2.175,0,0,1-1.171-.827l-8.7-12.181a6.552,6.552,0,0,0-5.315-2.735H30.547a6.552,6.552,0,0,0-5.315,2.735l-8.7,12.181a2.182,2.182,0,0,1-1.175.829L7.634,87.631A63.186,63.186,0,0,1,67.5,4.355ZM34.619,111.048H56.833a10.807,10.807,0,0,0,2.012,4.355H32.6a10.783,10.783,0,0,0,2.014-4.355Zm26.349-2.177A6.532,6.532,0,1,1,67.5,115.4,6.541,6.541,0,0,1,60.968,108.871Zm-6.532,10.887v4.355H41.371v-4.355Zm4.355,0H76.21v4.355H58.79Zm21.774,0H93.629v4.355H80.564Zm17.419,0h4.92q-2.384,1.62-4.92,3.018Zm-84.7-13.065H6.532a2.182,2.182,0,0,1-2.177-2.177V94.737a2.187,2.187,0,0,1,1.581-2.094l10.617-3.033a6.559,6.559,0,0,0,3.523-2.486l8.7-12.179a2.189,2.189,0,0,1,1.772-.912H60.9a2.186,2.186,0,0,1,1.77.91l8.7,12.181a6.559,6.559,0,0,0,3.521,2.484l10.619,3.035A2.184,2.184,0,0,1,87.1,94.737v9.779a2.182,2.182,0,0,1-2.177,2.177H78.167a10.887,10.887,0,0,0-21.334,0H47.9v-4.355H43.548v4.355h-8.93a10.887,10.887,0,0,0-21.334,0Zm4.135,2.177a6.532,6.532,0,1,1,6.532,6.532A6.541,6.541,0,0,1,17.419,108.871Zm19.6,10.887v3q-2.515-1.387-4.908-3Zm14.068,8.71H83.916a62.968,62.968,0,0,1-32.831,0ZM108.572,115.4h-8.411V102.339h13.065v8.643Q111.011,113.307,108.572,115.4Zm22.073-47.9a62.813,62.813,0,0,1-13.065,38.4V97.984h-4.355V55.823a28.279,28.279,0,0,0,14.195-8.3A62.946,62.946,0,0,1,130.645,67.5Zm0,0" transform="translate(0 0)"/><path class="e" d="M80,392h4.355v4.355H80Zm0,0" transform="translate(-58.226 -285.306)"/><path class="e" d="M240,392h4.355v4.355H240Zm0,0" transform="translate(-174.677 -285.306)"/><path class="e" d="M107.6,307.6h4.355v-6.532h19.6L121.75,288H97.8L88,301.065h19.6Zm-7.621-15.242h19.6l3.266,4.355H96.71Zm0,0" transform="translate(-64.048 -209.613)"/><path class="e" d="M128.71,129.419h23.952v-4.355H128.71a4.355,4.355,0,1,1,0-8.71h4.355V112H128.71a8.71,8.71,0,1,0,0,17.419Zm0,0" transform="translate(-87.339 -81.516)"/><path class="e" d="M256,160h4.355v4.355H256Zm0,0" transform="translate(-186.323 -116.452)"/><path class="e" d="M64.71,177.419H88.661v-4.355H64.71a4.355,4.355,0,1,1,0-8.71h4.355V160H64.71a8.71,8.71,0,0,0,0,17.419Zm0,0" transform="translate(-40.758 -116.452)"/><path class="e" d="M192,208h4.355v4.355H192Zm0,0" transform="translate(-139.742 -151.387)"/></g></g></svg>