<svg xmlns="http://www.w3.org/2000/svg" xmlns:xlink="http://www.w3.org/1999/xlink" width="1795.025" height="604.586" viewBox="0 0 1795.025 604.586">
  <defs>
    <linearGradient id="linear-gradient" x1="0.5" x2="0.5" y2="1" gradientUnits="objectBoundingBox">
      <stop offset="0" stop-color="#2a5e99" stop-opacity="0.349"/>
      <stop offset="1" stop-color="#336aa1"/>
    </linearGradient>
    <linearGradient id="linear-gradient-3" x1="0.524" y1="0.368" x2="0.465" y2="1.508" gradientUnits="objectBoundingBox">
      <stop offset="0" stop-color="#3870a6"/>
      <stop offset="1" stop-color="#3780b8"/>
    </linearGradient>
    <linearGradient id="linear-gradient-5" x1="0.5" x2="0.5" y2="1" gradientUnits="objectBoundingBox">
      <stop offset="0" stop-color="#05316d" stop-opacity="0.702"/>
      <stop offset="1" stop-color="#336aa1"/>
    </linearGradient>
  </defs>
  <g id="Grupo_123" data-name="Grupo 123" transform="translate(-56.637 -6470.863)">
    <circle id="Elipse_1" data-name="Elipse 1" cx="103" cy="103" r="103" transform="translate(750.426 7075.449) rotate(180)" fill="rgba(12,53,109,0.48)" opacity="0.665"/>
    <path id="Trazado_6" data-name="Trazado 6" d="M54.576,101.152a46.576,46.576,0,1,1,46.576-46.576A46.623,46.623,0,0,1,54.576,101.152Zm0-81.508A34.932,34.932,0,1,0,89.508,54.576,34.975,34.975,0,0,0,54.576,19.644Z" transform="translate(1264.426 6980.449) rotate(180)" fill="url(#linear-gradient)"/>
    <path id="Trazado_7" data-name="Trazado 7" d="M22.644,34.288A11.644,11.644,0,1,1,34.288,22.644,11.663,11.663,0,0,1,22.644,34.288Z" transform="translate(1232.494 6948.517) rotate(180)" fill="url(#linear-gradient)"/>
    <path id="Trazado_6-2" data-name="Trazado 6" d="M63.225,118.449a55.225,55.225,0,1,1,55.225-55.225A55.28,55.28,0,0,1,63.225,118.449Zm0-96.643a41.418,41.418,0,1,0,41.418,41.418A41.469,41.469,0,0,0,63.225,21.806Z" transform="translate(1859.662 6611.449) rotate(180)" fill="url(#linear-gradient-3)"/>
    <path id="Trazado_7-2" data-name="Trazado 7" d="M28.817,46.634A17.817,17.817,0,1,1,46.634,28.817,17.847,17.847,0,0,1,28.817,46.634Z" transform="translate(1825.255 6577.042) rotate(180)" fill="url(#linear-gradient-3)"/>
    <path id="Trazado_6-3" data-name="Trazado 6" d="M105.318,202.637a97.318,97.318,0,1,1,97.318-97.318A97.416,97.416,0,0,1,105.318,202.637Zm0-170.307a72.989,72.989,0,1,0,72.989,72.989A73.078,73.078,0,0,0,105.318,32.33Z" transform="translate(935.318 6673.5) rotate(180)" fill="rgba(60,119,170,0.19)"/>
    <path id="Trazado_7-3" data-name="Trazado 7" d="M35.33,59.659a24.33,24.33,0,1,1,24.33-24.33A24.37,24.37,0,0,1,35.33,59.659Z" transform="translate(865.33 6603.511) rotate(180)" fill="rgba(60,119,170,0.19)"/>
    <path id="Trazado_6-4" data-name="Trazado 6" d="M54.576,101.152a46.576,46.576,0,1,1,46.576-46.576A46.623,46.623,0,0,1,54.576,101.152Zm0-81.508A34.932,34.932,0,1,0,89.508,54.576,34.975,34.975,0,0,0,54.576,19.644Z" transform="translate(157.789 6905.449) rotate(180)" fill="url(#linear-gradient-5)"/>
    <path id="Trazado_7-4" data-name="Trazado 7" d="M22.644,34.288A11.644,11.644,0,1,1,34.288,22.644,11.663,11.663,0,0,1,22.644,34.288Z" transform="translate(125.857 6873.517) rotate(180)" fill="url(#linear-gradient-5)"/>
    <path id="Trazado_6-5" data-name="Trazado 6" d="M105.318,202.637a97.318,97.318,0,1,1,97.318-97.318A97.416,97.416,0,0,1,105.318,202.637Zm0-170.307a72.989,72.989,0,1,0,72.989,72.989A73.078,73.078,0,0,0,105.318,32.33Z" transform="translate(935.318 6673.5) rotate(180)" fill="rgba(60,119,170,0.19)"/>
    <path id="Trazado_7-5" data-name="Trazado 7" d="M35.33,59.659a24.33,24.33,0,1,1,24.33-24.33A24.37,24.37,0,0,1,35.33,59.659Z" transform="translate(865.33 6603.511) rotate(180)" fill="rgba(60,119,170,0.19)"/>
  </g>
</svg>
