<svg xmlns="http://www.w3.org/2000/svg" width="812" height="725" viewBox="0 0 812 725">
  <g id="Group_119" data-name="Group 119" transform="translate(2251 -2071)">
    <g id="Group_118" data-name="Group 118">
      <g id="Group_117" data-name="Group 117" transform="translate(2845.316 4717.828)">
        <g id="Ellipse_23" data-name="Ellipse 23" transform="translate(-4944.519 -2639.502)" fill="#5cb7f5" stroke="#232323" stroke-width="20">
          <circle cx="296.325" cy="296.325" r="296.325" stroke="none"/>
          <circle cx="296.325" cy="296.325" r="286.325" fill="none"/>
        </g>
        <path id="Path_44" data-name="Path 44" d="M284.717,407.2c0,21.646-15.384,39.2-34.358,39.2S216,428.841,216,407.2,231.384,368,250.358,368,284.717,385.55,284.717,407.2Zm0,0" transform="translate(-5073.671 -2383.281)" fill="#fcd770" stroke="#232323" stroke-width="20"/>
        <path id="Path_45" data-name="Path 45" d="M124.717,407.2c0,21.646-15.384,39.2-34.358,39.2S56,428.841,56,407.2,71.384,368,90.358,368,124.717,385.55,124.717,407.2Zm0,0" transform="translate(-5085.463 -2383.281)" fill="#fcd770" stroke="#232323" stroke-width="20"/>
        <path id="Path_46" data-name="Path 46" d="M24.147,347l38.225-12.545a17.562,17.562,0,0,0,9.277-7.445l34.27-54.779c3.263-5.191,8.418-8.229,14-8.229H239.662c5.582,0,10.737,3.038,14,8.229l34.27,54.779a17.562,17.562,0,0,0,9.277,7.445l41.916,13.717c7.39,2.354,12.457,10.1,12.457,18.813v44c0,10.78-7.73,19.6-17.179,19.6H300.045c0-21.655-15.376-39.2-34.358-39.2s-34.358,17.54-34.358,39.2H128.254c0-21.655-15.376-39.2-34.358-39.2s-34.358,17.54-34.358,39.2H25.179C15.73,430.582,8,421.764,8,410.984v-44c0-8.717,5.066-16.459,12.457-18.813Zm0,0" transform="translate(-5089 -2400.543)" fill="#ff958a" stroke="#232323" stroke-width="20"/>
        <path id="Path_47" data-name="Path 47" d="M215.664,296l25.769,39.2H104L129.769,296Zm0,0" transform="translate(-5081.925 -2399.471)" fill="#f5f7fa"/>
        <path id="Path_56" data-name="Path 56" d="M80,392H97.179v19.6H80Zm0,0" transform="translate(-5083.694 -2377.885)" fill="#232323"/>
        <path id="Path_57" data-name="Path 57" d="M240,392h17.179v19.6H240Zm0,0" transform="translate(-5071.902 -2377.885)" fill="#232323"/>
        <path id="Path_58" data-name="Path 58" d="M165.306,376.19h17.179v-29.4h77.306L221.138,288H126.653L88,346.793h77.306ZM135.243,307.6h77.306l12.884,19.6H122.358Zm0,0" transform="translate(-5083.104 -2401.271)" fill="#232323"/>
        <path id="Path_60" data-name="Path 60" d="M256,160h17.179v19.6H256Zm0,0" transform="translate(-5173.798 -2155.683)" fill="#232323"/>
        <path id="Path_74" data-name="Path 74" d="M145.359,33.922A23.987,23.987,0,0,1,136,80H32a24,24,0,0,1,0-48c.4,0,.719.078,1.121.078A31.695,31.695,0,0,1,84,15.2a31.695,31.695,0,0,1,50.879,16.879c.4,0,.723-.078,1.121-.078a22.76,22.76,0,0,1,9.359,1.922Zm0,0" transform="translate(-4836.295 -2511.615)" fill="#f5f7fa" stroke="#232323" stroke-width="20"/>
        <path id="Path_262" data-name="Path 262" d="M441.118,157.9H88.409L10,294.941H519.527Z" transform="translate(-4814.198 -2534.387)" fill="#ff958a"/>
        <path id="Path_263" data-name="Path 263" d="M323.352,222.236v70.677H193.127V222.236l65.113-76.341Z" transform="translate(-4807.676 -2536.565)" fill="#fcd770"/>
        <path id="Path_264" data-name="Path 264" d="M236,221.867h41.425v61.468H236Z" transform="translate(-4806.148 -2522.78)" fill="#5cb7f5"/>
        <path id="Path_265" data-name="Path 265" d="M30,273.895H498.1V543.343H30Z" transform="translate(-4813.486 -2513.341)" fill="#e4ecfe"/>
        <path id="Path_266" data-name="Path 266" d="M349,347.938h91.135V451.9H349Z" transform="translate(-4802.123 -2499.907)" fill="#5cb7f5"/>
        <path id="Path_267" data-name="Path 267" d="M0,0H91.135V103.966H0Z" transform="translate(-4645.749 -2048.005) rotate(180)" fill="#5cb7f5"/>
        <path id="Path_268" data-name="Path 268" d="M257.71,337.9C230.256,337.9,208,363.284,208,394.6V531.732h99.42V394.6C307.42,363.285,285.163,337.9,257.71,337.9Z" transform="translate(-4807.146 -2501.729)" fill="#fcd770"/>
        <path id="Path_269" data-name="Path 269" d="M528.555,292.475,450.146,155.429a10.1,10.1,0,0,0-8.672-5.357H281.837l-9.394-10.717a9.479,9.479,0,0,0-14.646,0L248.4,150.072H88.765a10.1,10.1,0,0,0-8.672,5.357L1.684,292.475a13.253,13.253,0,0,0-.435,12.082,10.25,10.25,0,0,0,9.107,6.19H20.712V568.381c0,6.525,4.638,11.814,10.356,11.814h468.1c5.719,0,10.356-5.289,10.356-11.814v-81.54c0-6.525-4.637-11.814-10.356-11.814s-10.356,5.289-10.356,11.814v69.726H325.186V431.253c0-37.783-26.946-68.523-60.066-68.523s-60.066,30.74-60.066,68.523V556.567H41.425V310.747H488.814v69.765c0,6.525,4.638,11.814,10.356,11.814s10.356-5.289,10.356-11.814V310.747h10.356a10.25,10.25,0,0,0,9.107-6.19A13.253,13.253,0,0,0,528.555,292.475ZM225.766,485.4h8.795c5.719,0,10.356-5.289,10.356-11.814s-4.637-11.814-10.356-11.814h-8.795V431.253c0-24.755,17.654-44.894,39.354-44.894s39.354,20.14,39.354,44.894V556.567H225.766Zm94.11-258.512v60.234H296.188V237.465c0-6.525-4.637-11.814-10.356-11.814H244.407c-5.719,0-10.356,5.289-10.356,11.814v49.653H210.363V226.884l54.757-62.467ZM29.483,287.118,94.373,173.7H227.69l-49.618,56.6a13.023,13.023,0,0,0,0,16.709,9.427,9.427,0,0,0,11.579,2.4v37.7Zm225.28,0V249.279h20.712v37.839Zm85.825,0v-37.7a9.294,9.294,0,0,0,4.255,1.055,9.72,9.72,0,0,0,7.323-3.46,13.023,13.023,0,0,0,0-16.709l-49.618-56.6H435.866l64.89,113.417H340.589Z" transform="translate(-4814.555 -2538.378)"/>
        <path id="Path_270" data-name="Path 270" d="M349.356,337.938c-5.719,0-10.356,5.289-10.356,11.814V453.718c0,6.525,4.638,11.814,10.356,11.814h91.135c5.719,0,10.356-5.289,10.356-11.814V349.752c0-6.525-4.638-11.814-10.356-11.814Zm80.779,54.308H405.28V361.566h24.855Zm-45.567-30.679v30.681H359.712V361.567Zm-24.855,54.308h24.855V441.9H359.712ZM405.28,441.9V415.876h24.855V441.9Z" transform="translate(-4802.479 -2501.721)"/>
        <path id="Path_271" data-name="Path 271" d="M75.356,337.938c-5.719,0-10.356,5.289-10.356,11.814V453.718c0,6.525,4.638,11.814,10.356,11.814h91.135c5.719,0,10.356-5.289,10.356-11.814V349.752c0-6.525-4.638-11.814-10.356-11.814Zm80.779,54.308H131.28V361.566h24.855Zm-45.567-30.679v30.681H85.712V361.567ZM85.712,415.875h24.855V441.9H85.712ZM131.28,441.9V415.876h24.855V441.9Z" transform="translate(-4812.239 -2501.721)"/>
      </g>
      <rect id="Rectangle_1111" data-name="Rectangle 1111" width="812" height="725" transform="translate(-2251 2071)" fill="none"/>
    </g>
  </g>
</svg>

