<svg xmlns="http://www.w3.org/2000/svg" width="33.996" height="33.919" viewBox="0 0 33.996 33.919"><defs><style>.a{fill:#226edb;fill-rule:evenodd;}</style></defs><path class="a" d="M12.836,16.714a4.23,4.23,0,0,1,4.3-3.954,4.262,4.262,0,0,1,3.954,3.783v.86c0,4.542-8.252,5.619-8.252-.688Zm-9.972.171A14.845,14.845,0,0,1,5.416,8.949c.263-.355.457-.621.759-.96L7.889,6.263a13.947,13.947,0,0,1,14.98-1.988,18.2,18.2,0,0,1,2.177,1.262,14.821,14.821,0,0,1,4.759,5.73,14.862,14.862,0,0,1,1.259,5.619c0,6.263-5.014,4.541-6.359,2.232-.965-1.656-.421-2.885-1.055-4.619a7.413,7.413,0,0,0-6.686-4.662A7.2,7.2,0,0,0,10.6,20.155a6.469,6.469,0,0,0,1.5,1.934,7.15,7.15,0,0,0,4.688,2.017c4.181,0,4.925-2.46,6.018-2.751.163.611.461.745.954,1.109,2.585,1.9,5.811,2.418,8.225.163.026-.024.064-.059.088-.083l.171-.171c1.5-1.559,1.735-3.1,1.735-5.831,0-11.29-12.977-20.467-24.478-14.849A16.55,16.55,0,0,0,4.8,5.236a16.608,16.608,0,0,0-.859,22.437c.4.445.535.7.938,1.124l2.258,1.869A16.243,16.243,0,0,0,9.74,32.188c3.758,1.9,6.06,1.719,10.145,1.719V30.984c-3.563,0-5.58.212-8.886-1.431a15.5,15.5,0,0,1-4.057-2.82,14.484,14.484,0,0,1-4.079-9.848Z" transform="translate(0.012 0.007)"/></svg>