<svg xmlns="http://www.w3.org/2000/svg" width="29.588" height="35.266" viewBox="0 0 29.588 35.266"><defs><style>.a{fill:#226edb;stroke:#226edb;}</style></defs><g transform="translate(0.5 0.5)"><path class="a" d="M95.285,16.506a7.986,7.986,0,0,0,5.836-2.418,7.986,7.986,0,0,0,2.418-5.835,7.987,7.987,0,0,0-2.418-5.835,8.251,8.251,0,0,0-11.671,0,7.986,7.986,0,0,0-2.418,5.835,7.986,7.986,0,0,0,2.418,5.836A7.988,7.988,0,0,0,95.285,16.506ZM90.87,3.838a6.243,6.243,0,0,1,8.831,0,5.967,5.967,0,0,1,1.83,4.415,5.966,5.966,0,0,1-1.83,4.415,6.242,6.242,0,0,1-8.831,0,5.965,5.965,0,0,1-1.83-4.415,5.966,5.966,0,0,1,1.83-4.415Zm0,0" transform="translate(-81.207 0)"/><path class="a" d="M28.518,257.113a20.384,20.384,0,0,0-.278-2.165,17.058,17.058,0,0,0-.533-2.177,10.753,10.753,0,0,0-.9-2.03,7.653,7.653,0,0,0-1.349-1.759,5.95,5.95,0,0,0-1.938-1.218,6.7,6.7,0,0,0-2.475-.448,2.512,2.512,0,0,0-1.341.569c-.4.262-.872.565-1.4.9a8.007,8.007,0,0,1-1.808.8,7.021,7.021,0,0,1-4.423,0,7.984,7.984,0,0,1-1.807-.8c-.52-.332-.991-.636-1.4-.9a2.509,2.509,0,0,0-1.341-.569,6.691,6.691,0,0,0-2.474.448,5.944,5.944,0,0,0-1.939,1.218,7.654,7.654,0,0,0-1.349,1.758,10.773,10.773,0,0,0-.895,2.03,17.1,17.1,0,0,0-.532,2.177,20.247,20.247,0,0,0-.278,2.166c-.045.654-.068,1.335-.068,2.023a5.69,5.69,0,0,0,1.69,4.3,6.083,6.083,0,0,0,4.355,1.588h16.5a6.083,6.083,0,0,0,4.354-1.588,5.688,5.688,0,0,0,1.69-4.3c0-.69-.024-1.371-.069-2.024Zm-3.005,4.874a4.1,4.1,0,0,1-2.97,1.035H6.044a4.1,4.1,0,0,1-2.97-1.035,3.715,3.715,0,0,1-1.066-2.85c0-.642.021-1.276.064-1.885a18.26,18.26,0,0,1,.251-1.95,15.08,15.08,0,0,1,.468-1.919,8.771,8.771,0,0,1,.728-1.651,5.674,5.674,0,0,1,.992-1.3,3.947,3.947,0,0,1,1.29-.8,4.622,4.622,0,0,1,1.581-.305c.07.037.2.109.4.241.413.269.889.576,1.415.912a9.95,9.95,0,0,0,2.269,1.014,9.027,9.027,0,0,0,5.658,0,9.958,9.958,0,0,0,2.271-1.015c.538-.344,1-.642,1.414-.911.2-.132.328-.2.4-.241a4.624,4.624,0,0,1,1.582.305,3.952,3.952,0,0,1,1.289.8,5.659,5.659,0,0,1,.992,1.3,8.742,8.742,0,0,1,.729,1.65,15.048,15.048,0,0,1,.468,1.919,18.415,18.415,0,0,1,.251,1.951h0c.043.606.064,1.24.064,1.884a3.715,3.715,0,0,1-1.067,2.85Zm0,0" transform="translate(0 -230.765)"/></g></svg>