<svg xmlns="http://www.w3.org/2000/svg" width="40" height="40" viewBox="0 0 40 40"><defs><style>.a{fill:#fff;}.b{fill:#1da1f2;}</style></defs><g transform="translate(-942 -5852)"><circle class="a" cx="18" cy="18" r="18" transform="translate(944 5854)"/><path class="b" d="M23.84,3.84a20,20,0,1,0,20,20A20,20,0,0,0,23.84,3.84Zm10.35,14.8a5.835,5.835,0,0,1-1.346,1.21,3.634,3.634,0,0,1-.089,1.4,14.612,14.612,0,0,1-.175,1.546c-.165.519-.213,1.057-.387,1.575a7.828,7.828,0,0,1-.9,1.743c-.3.45-.5.93-.792,1.377a10.4,10.4,0,0,1-1.175,1.269,11.461,11.461,0,0,1-2.137,1.688,13.32,13.32,0,0,1-2.019.906,5.574,5.574,0,0,1-.878.3,4.9,4.9,0,0,1-.984.232l-.506.087c-.2.019-.718-.02-.984,0s-.521-.057-.793-.056A15.088,15.088,0,0,1,19.03,31.8a8.061,8.061,0,0,1-3.4-1.334c-.17-.121-.3-.292-.468-.416a5.277,5.277,0,0,0,3.169-.225,8.974,8.974,0,0,0,1.579-.666c.359-.254.779-.527,1.145-.733a6.28,6.28,0,0,1-2.39-.73,3.326,3.326,0,0,1-1.372-2.14A14.333,14.333,0,0,0,19,25.543a3.759,3.759,0,0,1-1.152-.55A5.677,5.677,0,0,1,16.606,24a3.606,3.606,0,0,1-.636-2.472,4.262,4.262,0,0,1,.761.279,5.253,5.253,0,0,1,.855.2c-.863-.281-1.307-1.659-1.53-2.427a7.922,7.922,0,0,1,.309-2.971c.673.511,1.166,1.282,1.843,1.748.392.269.837.568,1.216.835.192.136.338.2.533.344a3.528,3.528,0,0,0,.62.3,7.619,7.619,0,0,0,1.631.557,13.055,13.055,0,0,1,1.884.344l.7.084a5.3,5.3,0,0,1,.147-2.586,3.853,3.853,0,0,1,2.039-2.089,4.194,4.194,0,0,1,2.875-.219,9.892,9.892,0,0,1,1.231.565c.36.2.536.663.934.612a3.555,3.555,0,0,0,2.195-1.137,3.063,3.063,0,0,1-1.462,2.375,17,17,0,0,0,2.075-.526A2.72,2.72,0,0,1,34.19,18.636Z" transform="translate(938.16 5848.16)"/></g></svg>